<svg width="40" height="40" viewBox="0 0 40 40" fill="none" xmlns="http://www.w3.org/2000/svg">
<path d="M4 12.6367H10.3637V25.1509V31.0914H4V12.6367Z" stroke="black" stroke-width="1.2" stroke-miterlimit="10" stroke-linecap="round" stroke-linejoin="round"/>
<path d="M7.18184 10.0909C5.27273 10.0909 4 8.9372 4 7.51174C4 6.08628 5.27273 5 7.18184 5C9.09094 5 10.2841 6.08628 10.3637 7.51174C10.3637 8.9372 9.17048 10.0909 7.18184 10.0909Z" stroke="black" stroke-width="1.1856" stroke-miterlimit="10" stroke-linecap="round" stroke-linejoin="round"/>
<path d="M25.6359 20.5913C25.6359 19.0099 24.3536 17.7277 22.7722 17.7277C21.1909 17.7277 19.9086 19.0099 19.9086 20.5913C19.9086 20.5913 19.9086 20.6709 19.9086 20.7504C19.9086 20.8299 19.9086 20.9095 19.9086 20.9095C19.9086 21.731 19.9086 31.0914 19.9086 31.0914H13.5449V12.6367H19.9086V14.9525C19.9086 14.9525 21.9895 12.6367 25.5003 12.6367C29.0863 12.6367 31.9996 15.2681 31.9996 20.2731V31.0914H25.6359C25.6359 31.0914 25.6359 21.2639 25.6359 20.5913Z" stroke="black" stroke-width="1.2" stroke-miterlimit="10" stroke-linecap="round" stroke-linejoin="round"/>
</svg>
