<svg width="30" height="29" viewBox="0 0 30 29" fill="none" xmlns="http://www.w3.org/2000/svg">
<path d="M0.919922 9.24023H7.31992V21.8258V27.8002H0.919922V9.24023Z" stroke="black" stroke-width="1.2" stroke-miterlimit="10" stroke-linecap="round" stroke-linejoin="round"/>
<path d="M4.11992 6.67957C2.19992 6.67957 0.919922 5.51925 0.919922 4.08565C0.919922 2.65205 2.19992 1.55957 4.11992 1.55957C6.03992 1.55957 7.23992 2.65205 7.31992 4.08565C7.31992 5.51925 6.11992 6.67957 4.11992 6.67957Z" stroke="black" stroke-width="1.1856" stroke-miterlimit="10" stroke-linecap="round" stroke-linejoin="round"/>
<path d="M22.68 17.2402C22.68 15.6498 21.3904 14.3602 19.8 14.3602C18.2096 14.3602 16.92 15.6498 16.92 17.2402C16.92 17.2402 16.92 17.3202 16.92 17.4002C16.92 17.4802 16.92 17.5602 16.92 17.5602C16.92 18.3865 16.92 27.8002 16.92 27.8002H10.52V9.24023H16.92V11.5692C16.92 11.5692 19.0128 9.24023 22.5437 9.24023C26.1501 9.24023 29.08 11.8866 29.08 16.9202V27.8002H22.68C22.68 27.8002 22.68 17.9167 22.68 17.2402Z" stroke="black" stroke-width="1.2" stroke-miterlimit="10" stroke-linecap="round" stroke-linejoin="round"/>
</svg>
