<svg width="50" height="50" viewBox="0 0 50 50" fill="none" xmlns="http://www.w3.org/2000/svg">
<path d="M7.07324 15.3877H13.2293V27.4937V33.2404H7.07324V15.3877Z" stroke="black" stroke-width="1.2" stroke-miterlimit="10" stroke-linecap="round" stroke-linejoin="round"/>
<path d="M10.1513 12.9249C8.30446 12.9249 7.07324 11.8088 7.07324 10.4298C7.07324 9.05085 8.30446 8 10.1513 8C11.9981 8 13.1524 9.05085 13.2293 10.4298C13.2293 11.8088 12.0751 12.9249 10.1513 12.9249Z" stroke="black" stroke-width="1.1856" stroke-miterlimit="10" stroke-linecap="round" stroke-linejoin="round"/>
<path d="M28.0042 23.0828C28.0042 21.553 26.7638 20.3126 25.234 20.3126C23.7042 20.3126 22.4637 21.553 22.4637 23.0828C22.4637 23.0828 22.4637 23.1598 22.4637 23.2367C22.4637 23.3137 22.4637 23.3906 22.4637 23.3906C22.4637 24.1854 22.4637 33.2404 22.4637 33.2404H16.3076V15.3877H22.4637V17.6279C22.4637 17.6279 24.4768 15.3877 27.8731 15.3877C31.3421 15.3877 34.1603 17.9332 34.1603 22.775V33.2404H28.0042C28.0042 33.2404 28.0042 23.7335 28.0042 23.0828Z" stroke="black" stroke-width="1.2" stroke-miterlimit="10" stroke-linecap="round" stroke-linejoin="round"/>
</svg>
