<?xml version="1.0" encoding="UTF-8"?>
<svg xmlns="http://www.w3.org/2000/svg" xmlns:xlink="http://www.w3.org/1999/xlink" viewBox="0 0 30 30" width="30px" height="30px">
<g id="surface292651010">
<path style=" stroke:none;fill-rule:evenodd;fill:rgb(0%,0%,0%);fill-opacity:1;" d="M 15 11.292969 L 17.105469 4.199219 L 27.601562 4.199219 L 27.601562 9.601562 L 25.800781 9.601562 L 25.800781 19.800781 L 27.601562 19.800781 L 27.601562 24.601562 L 17.234375 24.601562 L 17.207031 22.183594 L 16.5 24.601562 L 12.300781 24.601562 L 11.398438 21.511719 L 11.398438 24.601562 L 2.398438 24.601562 L 2.398438 19.800781 L 4.15625 19.800781 L 4.15625 19.796875 L 4.164062 19.789062 L 4.164062 19.785156 L 4.167969 19.777344 L 4.179688 19.765625 L 4.179688 19.757812 L 4.1875 19.753906 L 4.191406 19.738281 L 4.195312 19.730469 L 4.199219 19.726562 L 4.199219 9.601562 L 2.398438 9.601562 L 2.398438 4.199219 L 12.894531 4.199219 Z M 3.601562 5.398438 L 3.601562 8.398438 L 4.199219 8.398438 L 4.339844 8.40625 L 4.40625 8.410156 L 4.4375 8.410156 L 4.46875 8.417969 L 4.503906 8.421875 L 4.53125 8.421875 L 4.5625 8.429688 L 4.59375 8.433594 L 4.621094 8.441406 L 4.652344 8.445312 L 4.738281 8.46875 L 4.761719 8.476562 L 4.816406 8.492188 L 4.839844 8.503906 L 4.867188 8.511719 L 4.984375 8.570312 L 5.023438 8.597656 L 5.046875 8.617188 L 5.066406 8.628906 L 5.085938 8.644531 L 5.125 8.679688 L 5.140625 8.699219 L 5.160156 8.714844 L 5.207031 8.773438 L 5.222656 8.796875 L 5.234375 8.816406 L 5.246094 8.839844 L 5.277344 8.886719 L 5.289062 8.914062 L 5.300781 8.9375 L 5.308594 8.964844 L 5.320312 8.992188 L 5.339844 9.046875 L 5.347656 9.074219 L 5.363281 9.136719 L 5.367188 9.167969 L 5.375 9.203125 L 5.382812 9.265625 L 5.394531 9.335938 L 5.394531 9.371094 L 5.398438 9.410156 L 5.398438 19.851562 L 5.394531 19.890625 L 5.386719 19.929688 L 5.375 19.972656 L 5.371094 19.996094 L 5.359375 20.039062 L 5.335938 20.109375 L 5.328125 20.136719 L 5.304688 20.183594 L 5.296875 20.207031 L 5.261719 20.285156 L 5.246094 20.308594 L 5.207031 20.386719 L 5.1875 20.410156 L 5.171875 20.433594 L 5.140625 20.488281 L 5.121094 20.511719 L 5.105469 20.535156 L 5.046875 20.605469 L 4.960938 20.699219 L 4.914062 20.738281 L 4.886719 20.761719 L 4.863281 20.78125 L 4.8125 20.816406 L 4.785156 20.835938 L 4.757812 20.851562 L 4.703125 20.886719 L 4.671875 20.898438 L 4.644531 20.914062 L 4.550781 20.949219 L 4.449219 20.976562 L 4.414062 20.984375 L 4.382812 20.988281 L 4.347656 20.992188 L 4.308594 20.996094 L 4.273438 21 L 3.601562 21 L 3.601562 23.398438 L 10.199219 23.398438 L 10.199219 21 L 9 21 L 9 9 L 13.199219 23.398438 L 15.601562 23.398438 L 19.800781 9 L 19.800781 21 L 18.390625 21 L 18.417969 23.398438 L 26.398438 23.398438 L 26.398438 21 L 25.460938 21 L 25.433594 20.996094 L 25.410156 20.996094 L 25.382812 20.992188 L 25.355469 20.992188 L 25.332031 20.984375 L 25.308594 20.984375 L 25.28125 20.976562 L 25.257812 20.972656 L 25.210938 20.957031 L 25.191406 20.949219 L 25.144531 20.933594 L 25.105469 20.910156 L 25.0625 20.886719 L 25.042969 20.875 L 24.96875 20.820312 L 24.953125 20.804688 L 24.933594 20.789062 L 24.898438 20.753906 L 24.886719 20.738281 L 24.839844 20.679688 L 24.824219 20.664062 L 24.8125 20.640625 L 24.800781 20.621094 L 24.785156 20.597656 L 24.773438 20.578125 L 24.761719 20.554688 L 24.75 20.535156 L 24.726562 20.488281 L 24.71875 20.460938 L 24.707031 20.4375 L 24.699219 20.410156 L 24.6875 20.386719 L 24.679688 20.363281 L 24.648438 20.253906 L 24.644531 20.226562 L 24.636719 20.199219 L 24.632812 20.171875 L 24.628906 20.140625 L 24.621094 20.113281 L 24.617188 20.082031 L 24.613281 20.054688 L 24.613281 20.019531 L 24.605469 19.988281 L 24.605469 19.929688 L 24.601562 19.894531 L 24.601562 9.464844 L 24.605469 9.425781 L 24.609375 9.382812 L 24.617188 9.304688 L 24.625 9.230469 L 24.648438 9.125 L 24.652344 9.089844 L 24.664062 9.058594 L 24.683594 8.996094 L 24.691406 8.96875 L 24.726562 8.886719 L 24.753906 8.835938 L 24.765625 8.8125 L 24.796875 8.765625 L 24.828125 8.722656 L 24.863281 8.6875 L 24.898438 8.648438 L 24.9375 8.617188 L 24.957031 8.597656 L 25.023438 8.558594 L 25.046875 8.546875 L 25.066406 8.535156 L 25.089844 8.519531 L 25.117188 8.511719 L 25.140625 8.5 L 25.191406 8.480469 L 25.214844 8.472656 L 25.324219 8.441406 L 25.351562 8.4375 L 25.382812 8.433594 L 25.410156 8.425781 L 25.503906 8.414062 L 25.53125 8.410156 L 25.730469 8.398438 L 26.398438 8.398438 L 26.398438 5.398438 L 18 5.398438 L 15 15.511719 L 12 5.398438 Z M 17.898438 19.800781 L 18.601562 19.800781 L 18.601562 17.398438 Z M 10.199219 19.800781 L 10.902344 19.800781 L 10.199219 17.398438 Z M 10.199219 19.800781 "/>
</g>
</svg>
