<?xml version="1.0" encoding="UTF-8"?>
<svg xmlns="http://www.w3.org/2000/svg" xmlns:xlink="http://www.w3.org/1999/xlink" viewBox="0 0 35 35" width="35px" height="35px">
<g id="surface14820727">
<path style=" stroke:none;fill-rule:evenodd;fill:rgb(0%,0%,0%);fill-opacity:1;" d="M 17.5 13.175781 L 19.957031 4.898438 L 32.199219 4.898438 L 32.199219 11.199219 L 30.101562 11.199219 L 30.101562 23.101562 L 32.199219 23.101562 L 32.199219 28.699219 L 20.109375 28.699219 L 20.074219 25.882812 L 19.25 28.699219 L 14.351562 28.699219 L 13.300781 25.097656 L 13.300781 28.699219 L 2.800781 28.699219 L 2.800781 23.101562 L 4.847656 23.101562 L 4.851562 23.09375 L 4.855469 23.089844 L 4.863281 23.074219 L 4.875 23.058594 L 4.878906 23.050781 L 4.882812 23.046875 L 4.890625 23.027344 L 4.894531 23.019531 L 4.898438 23.015625 L 4.898438 11.199219 L 2.800781 11.199219 L 2.800781 4.898438 L 15.042969 4.898438 Z M 4.199219 6.300781 L 4.199219 9.800781 L 4.898438 9.800781 L 4.980469 9.804688 L 5.0625 9.804688 L 5.140625 9.8125 L 5.179688 9.8125 L 5.214844 9.820312 L 5.253906 9.824219 L 5.289062 9.828125 L 5.324219 9.835938 L 5.359375 9.839844 L 5.390625 9.847656 L 5.425781 9.855469 L 5.527344 9.878906 L 5.554688 9.886719 L 5.589844 9.898438 L 5.644531 9.921875 L 5.675781 9.929688 L 5.703125 9.945312 L 5.734375 9.957031 L 5.761719 9.972656 L 5.785156 9.984375 L 5.8125 10 L 5.863281 10.03125 L 5.886719 10.050781 L 5.910156 10.066406 L 5.933594 10.085938 L 5.976562 10.125 L 5.996094 10.148438 L 6.019531 10.167969 L 6.054688 10.210938 L 6.074219 10.238281 L 6.09375 10.261719 L 6.109375 10.285156 L 6.121094 10.3125 L 6.15625 10.367188 L 6.167969 10.398438 L 6.183594 10.425781 L 6.191406 10.460938 L 6.207031 10.488281 L 6.230469 10.554688 L 6.238281 10.585938 L 6.246094 10.625 L 6.257812 10.660156 L 6.261719 10.695312 L 6.269531 10.734375 L 6.28125 10.8125 L 6.292969 10.894531 L 6.292969 10.933594 L 6.296875 10.980469 L 6.296875 11.023438 L 6.300781 11.070312 L 6.300781 23.121094 L 6.296875 23.136719 L 6.296875 23.160156 L 6.292969 23.203125 L 6.289062 23.230469 L 6.285156 23.25 L 6.273438 23.300781 L 6.265625 23.328125 L 6.25 23.378906 L 6.234375 23.433594 L 6.222656 23.460938 L 6.214844 23.492188 L 6.179688 23.574219 L 6.136719 23.667969 L 6.121094 23.695312 L 6.074219 23.785156 L 6.035156 23.839844 L 5.996094 23.902344 L 5.972656 23.929688 L 5.957031 23.957031 L 5.886719 24.039062 L 5.785156 24.148438 L 5.730469 24.195312 L 5.699219 24.222656 L 5.671875 24.242188 L 5.613281 24.285156 L 5.582031 24.308594 L 5.550781 24.328125 L 5.484375 24.367188 L 5.449219 24.382812 L 5.417969 24.398438 L 5.34375 24.425781 L 5.308594 24.441406 L 5.191406 24.472656 L 5.113281 24.488281 L 5.027344 24.496094 L 4.988281 24.5 L 4.199219 24.5 L 4.199219 27.300781 L 11.898438 27.300781 L 11.898438 24.5 L 10.5 24.5 L 10.5 10.5 L 15.398438 27.300781 L 18.199219 27.300781 L 23.101562 10.5 L 23.101562 24.5 L 21.453125 24.5 L 21.488281 27.300781 L 30.800781 27.300781 L 30.800781 24.5 L 29.703125 24.5 L 29.671875 24.496094 L 29.644531 24.496094 L 29.582031 24.488281 L 29.527344 24.480469 L 29.496094 24.472656 L 29.46875 24.46875 L 29.414062 24.449219 L 29.390625 24.441406 L 29.363281 24.433594 L 29.335938 24.421875 L 29.3125 24.40625 L 29.289062 24.394531 L 29.238281 24.367188 L 29.214844 24.355469 L 29.128906 24.289062 L 29.109375 24.273438 L 29.050781 24.214844 L 29.035156 24.195312 L 28.996094 24.148438 L 28.980469 24.128906 L 28.960938 24.105469 L 28.945312 24.082031 L 28.933594 24.058594 L 28.914062 24.03125 L 28.902344 24.007812 L 28.886719 23.980469 L 28.847656 23.902344 L 28.835938 23.871094 L 28.824219 23.84375 L 28.816406 23.8125 L 28.792969 23.757812 L 28.785156 23.722656 L 28.773438 23.691406 L 28.765625 23.664062 L 28.757812 23.628906 L 28.742188 23.566406 L 28.734375 23.496094 L 28.722656 23.464844 L 28.722656 23.429688 L 28.714844 23.394531 L 28.714844 23.355469 L 28.707031 23.320312 L 28.707031 23.25 L 28.703125 23.210938 L 28.699219 23.175781 L 28.699219 11.148438 L 28.703125 11.097656 L 28.703125 11.042969 L 28.71875 10.855469 L 28.730469 10.769531 L 28.753906 10.644531 L 28.761719 10.605469 L 28.773438 10.570312 L 28.796875 10.496094 L 28.804688 10.464844 L 28.832031 10.398438 L 28.847656 10.367188 L 28.878906 10.308594 L 28.894531 10.28125 L 28.914062 10.253906 L 28.929688 10.226562 L 28.96875 10.175781 L 29.007812 10.132812 L 29.050781 10.089844 L 29.09375 10.050781 L 29.117188 10.03125 L 29.191406 9.984375 L 29.21875 9.96875 L 29.242188 9.957031 L 29.269531 9.941406 L 29.300781 9.929688 L 29.328125 9.914062 L 29.390625 9.894531 L 29.417969 9.886719 L 29.449219 9.875 L 29.480469 9.867188 L 29.542969 9.847656 L 29.613281 9.839844 L 29.644531 9.832031 L 29.679688 9.824219 L 29.71875 9.820312 L 29.789062 9.8125 L 29.863281 9.808594 L 30.019531 9.800781 L 30.800781 9.800781 L 30.800781 6.300781 L 21 6.300781 L 17.5 18.097656 L 14 6.300781 Z M 20.882812 23.101562 L 21.699219 23.101562 L 21.699219 20.300781 Z M 11.898438 23.101562 L 12.71875 23.101562 L 11.898438 20.300781 Z M 11.898438 23.101562 "/>
</g>
</svg>
