<svg width="30" height="24" viewBox="0 0 30 24" fill="none" xmlns="http://www.w3.org/2000/svg">
<path fill-rule="evenodd" clip-rule="evenodd" d="M14.6992 8.27734L17.1562 0H29.3984V6.30078H27.3008V18.2031H29.3984V23.8008H17.3086L17.2734 20.9844L16.4492 23.8008H11.5508L10.5 20.1992V23.8008H0V18.2031H2.04687L2.05078 18.1953L2.05469 18.1914L2.0625 18.1758L2.07422 18.1602L2.07812 18.1523L2.08203 18.1484L2.08984 18.1289L2.09375 18.1211L2.09766 18.1172V6.30078H0V0H12.2422L14.6992 8.27734ZM1.39844 1.40234V4.90234H2.09766L2.17969 4.90625H2.26172L2.33984 4.91406H2.37891L2.41406 4.92187L2.45312 4.92578L2.48828 4.92969L2.52344 4.9375L2.55859 4.94141L2.58984 4.94922L2.625 4.95703L2.72656 4.98047L2.75391 4.98828L2.78906 5L2.84375 5.02344L2.875 5.03125L2.90234 5.04687L2.93359 5.05859L2.96094 5.07422L2.98437 5.08594L3.01172 5.10156L3.0625 5.13281L3.08594 5.15234L3.10937 5.16797L3.13281 5.1875L3.17578 5.22656L3.19531 5.25L3.21875 5.26953L3.25391 5.3125L3.27344 5.33984L3.29297 5.36328L3.30859 5.38672L3.32031 5.41406L3.35547 5.46875L3.36719 5.5L3.38281 5.52734L3.39062 5.5625L3.40625 5.58984L3.42969 5.65625L3.4375 5.6875L3.44531 5.72656L3.45703 5.76172L3.46094 5.79687L3.46875 5.83594L3.48047 5.91406L3.49219 5.99609V6.03516L3.49609 6.08203V6.125L3.5 6.17187V18.2227L3.49609 18.2383V18.2617L3.49219 18.3047L3.48828 18.332L3.48437 18.3516L3.47266 18.4023L3.46484 18.4297L3.44922 18.4805L3.43359 18.5352L3.42187 18.5625L3.41406 18.5938L3.37891 18.6758L3.33594 18.7695L3.32031 18.7969L3.27344 18.8867L3.23437 18.9414L3.19531 19.0039L3.17187 19.0312L3.15625 19.0586L3.08594 19.1406L2.98437 19.25L2.92969 19.2969L2.89844 19.3242L2.87109 19.3438L2.8125 19.3867L2.78125 19.4102L2.75 19.4297L2.68359 19.4688L2.64844 19.4844L2.61719 19.5L2.54297 19.5273L2.50781 19.543L2.39062 19.5742L2.3125 19.5898L2.22656 19.5977L2.1875 19.6016H1.39844V22.4023H9.09766V19.6016H7.69922V5.60156L12.5977 22.4023H15.3984L20.3008 5.60156V19.6016H18.6523L18.6875 22.4023H28V19.6016H26.9023L26.8711 19.5977H26.8438L26.7812 19.5898L26.7266 19.582L26.6953 19.5742L26.668 19.5703L26.6133 19.5508L26.5898 19.543L26.5625 19.5352L26.5352 19.5234L26.5117 19.5078L26.4883 19.4961L26.4375 19.4688L26.4141 19.457L26.3281 19.3906L26.3086 19.375L26.25 19.3164L26.2344 19.2969L26.1953 19.25L26.1797 19.2305L26.1602 19.207L26.1445 19.1836L26.1328 19.1602L26.1133 19.1328L26.1016 19.1094L26.0859 19.082L26.0469 19.0039L26.0352 18.9727L26.0234 18.9453L26.0156 18.9141L25.9922 18.8594L25.9844 18.8242L25.9727 18.793L25.9648 18.7656L25.957 18.7305L25.9414 18.668L25.9336 18.5977L25.9219 18.5664V18.5312L25.9141 18.4961V18.457L25.9062 18.4219V18.3516L25.9023 18.3125L25.8984 18.2773V6.25L25.9023 6.19922V6.14453L25.918 5.95703L25.9297 5.87109L25.9531 5.74609L25.9609 5.70703L25.9727 5.67187L25.9961 5.59766L26.0039 5.56641L26.0312 5.5L26.0469 5.46875L26.0781 5.41016L26.0938 5.38281L26.1133 5.35547L26.1289 5.32812L26.168 5.27734L26.207 5.23437L26.25 5.19141L26.293 5.15234L26.3164 5.13281L26.3906 5.08594L26.418 5.07031L26.4414 5.05859L26.4688 5.04297L26.5 5.03125L26.5273 5.01562L26.5898 4.99609L26.6172 4.98828L26.6484 4.97656L26.6797 4.96875L26.7422 4.94922L26.8125 4.94141L26.8438 4.93359L26.8789 4.92578L26.918 4.92187L26.9883 4.91406L27.0625 4.91016L27.2188 4.90234H28V1.40234H18.1992L14.6992 13.1992L11.1992 1.40234H1.39844ZM18.082 18.2031H18.8984V15.4023L18.082 18.2031ZM9.09766 18.2031H9.91797L9.09766 15.4023V18.2031Z" fill="black"/>
</svg>
