<svg width="50" height="50" viewBox="0 0 50 50" fill="none" xmlns="http://www.w3.org/2000/svg">
<path fill-rule="evenodd" clip-rule="evenodd" d="M22.8822 17.9498L25.2421 10H36.9998V16.0515H34.9852V27.4829H36.9998V32.859H25.3884L25.3546 30.1541L24.563 32.859H19.8584L18.8492 29.4V32.859H8.76465V27.4829H10.7305L10.7343 27.4754L10.738 27.4716L10.7455 27.4566L10.7568 27.4416L10.7605 27.4341L10.7643 27.4303L10.7718 27.4116L10.7756 27.4041L10.7793 27.4003V16.0515H8.76465V10H20.5224L22.8822 17.9498ZM10.1078 11.3469V14.7084H10.7793L10.8581 14.7121H10.9369L11.0119 14.7196H11.0494L11.0832 14.7271L11.1207 14.7309L11.1545 14.7346L11.1882 14.7421L11.222 14.7459L11.252 14.7534L11.2858 14.7609L11.3833 14.7834L11.4096 14.7909L11.4434 14.8022L11.4959 14.8247L11.5259 14.8322L11.5522 14.8472L11.5822 14.8584L11.6084 14.8734L11.6309 14.8847L11.6572 14.8997L11.706 14.9297L11.7285 14.9485L11.751 14.9635L11.7735 14.9822L11.8148 15.0198L11.8335 15.0423L11.856 15.061L11.8898 15.1023L11.9086 15.1286L11.9273 15.1511L11.9423 15.1736L11.9536 15.1998L11.9873 15.2524L11.9986 15.2824L12.0136 15.3086L12.0211 15.3424L12.0361 15.3687L12.0586 15.4324L12.0661 15.4625L12.0736 15.5L12.0849 15.5337L12.0886 15.5675L12.0961 15.605L12.1074 15.6801L12.1187 15.7588V15.7964L12.1224 15.8414V15.8826L12.1262 15.9277V27.5016L12.1224 27.5166V27.5391L12.1187 27.5804L12.1149 27.6067L12.1112 27.6254L12.0999 27.6742L12.0924 27.7005L12.0774 27.7492L12.0624 27.8017L12.0511 27.828L12.0436 27.858L12.0099 27.9368L11.9686 28.0269L11.9536 28.0531L11.9086 28.1394L11.871 28.1919L11.8335 28.252L11.811 28.2782L11.796 28.3045L11.7285 28.3833L11.6309 28.4883L11.5784 28.5333L11.5484 28.5596L11.5221 28.5783L11.4659 28.6196L11.4358 28.6421L11.4058 28.6609L11.3421 28.6984L11.3083 28.7134L11.2783 28.7284L11.207 28.7547L11.1732 28.7697L11.0607 28.7997L10.9856 28.8147L10.9031 28.8222L10.8656 28.826H10.1078V31.5159H17.5023V28.826H16.1592V15.3799L20.8638 31.5159H23.5538L28.2622 15.3799V28.826H26.6789L26.7127 31.5159H35.6567V28.826H34.6025L34.5725 28.8222H34.5462L34.4862 28.8147L34.4337 28.8072L34.4037 28.7997L34.3774 28.7959L34.3249 28.7772L34.3024 28.7697L34.2761 28.7622L34.2499 28.7509L34.2273 28.7359L34.2048 28.7247L34.1561 28.6984L34.1335 28.6871L34.051 28.6234L34.0323 28.6084L33.976 28.5521L33.961 28.5333L33.9235 28.4883L33.9084 28.4695L33.8897 28.447L33.8747 28.4245L33.8634 28.402L33.8447 28.3758L33.8334 28.3532L33.8184 28.327L33.7809 28.252L33.7696 28.2219L33.7584 28.1957L33.7509 28.1657L33.7284 28.1131L33.7209 28.0794L33.7096 28.0494L33.7021 28.0231L33.6946 27.9893L33.6796 27.9293L33.6721 27.8618L33.6608 27.8318V27.798L33.6533 27.7642V27.7267L33.6458 27.693V27.6254L33.6421 27.5879L33.6383 27.5541V16.0027L33.6421 15.9539V15.9014L33.6571 15.7213L33.6683 15.6388L33.6908 15.5187L33.6984 15.4812L33.7096 15.4474L33.7321 15.3762L33.7396 15.3462L33.7659 15.2824L33.7809 15.2524L33.8109 15.1961L33.8259 15.1698L33.8447 15.1436L33.8597 15.1173L33.8972 15.0685L33.9347 15.0273L33.976 14.986L34.0172 14.9485L34.0398 14.9297L34.111 14.8847L34.1373 14.8697L34.1598 14.8584L34.1861 14.8434L34.2161 14.8322L34.2423 14.8172L34.3024 14.7984L34.3286 14.7909L34.3586 14.7796L34.3887 14.7721L34.4487 14.7534L34.5162 14.7459L34.5462 14.7384L34.58 14.7309L34.6175 14.7271L34.685 14.7196L34.7563 14.7159L34.9064 14.7084H35.6567V11.3469H26.2438L22.8822 22.6769L19.5207 11.3469H10.1078ZM26.1312 27.4829H26.9153V24.7929L26.1312 27.4829ZM17.5023 27.4829H18.2902L17.5023 24.7929V27.4829Z" fill="black"/>
</svg>
