<svg width="40" height="40" viewBox="0 0 40 40" fill="none" xmlns="http://www.w3.org/2000/svg">
<path fill-rule="evenodd" clip-rule="evenodd" d="M14.9115 14.4032L17.1091 7H28.0584V12.6354H26.1822V23.2807H28.0584V28.2872H17.2453L17.2139 25.7682L16.4767 28.2872H12.0956L11.1558 25.066V28.2872H1.76465V23.2807H3.59536L3.59885 23.2737L3.60234 23.2702L3.60933 23.2563L3.61981 23.2423L3.62331 23.2353L3.6268 23.2318L3.63379 23.2143L3.63728 23.2074L3.64077 23.2039V12.6354H1.76465V7H12.714L14.9115 14.4032ZM3.0154 8.25424V11.3846H3.64077L3.71414 11.3881H3.78751L3.85738 11.3951H3.89232L3.92377 11.4021L3.9587 11.4056L3.99015 11.4091L4.02159 11.4161L4.05303 11.4196L4.08098 11.4265L4.11243 11.4335L4.20326 11.4545L4.22772 11.4615L4.25916 11.472L4.30807 11.4929L4.33602 11.4999L4.36048 11.5139L4.38843 11.5244L4.41289 11.5383L4.43385 11.5488L4.4583 11.5628L4.50372 11.5907L4.52469 11.6082L4.54565 11.6222L4.56661 11.6397L4.60504 11.6746L4.62251 11.6956L4.64347 11.713L4.67492 11.7515L4.69238 11.7759L4.70985 11.7969L4.72383 11.8178L4.73431 11.8423L4.76575 11.8912L4.77623 11.9192L4.79021 11.9436L4.79719 11.9751L4.81117 11.9995L4.83213 12.0589L4.83912 12.0869L4.84611 12.1218L4.85659 12.1532L4.86008 12.1847L4.86707 12.2196L4.87755 12.2895L4.88803 12.3629V12.3978L4.89153 12.4397V12.4781L4.89502 12.5201V23.2982L4.89153 23.3122V23.3331L4.88803 23.3716L4.88454 23.396L4.88104 23.4135L4.87056 23.4589L4.86358 23.4834L4.8496 23.5288L4.83563 23.5777L4.82514 23.6021L4.81816 23.6301L4.78671 23.7035L4.74828 23.7873L4.73431 23.8118L4.69238 23.8921L4.65745 23.941L4.62251 23.9969L4.60155 24.0214L4.58757 24.0458L4.52469 24.1192L4.43385 24.217L4.38494 24.259L4.35699 24.2834L4.33253 24.3009L4.28012 24.3393L4.25217 24.3603L4.22422 24.3777L4.16483 24.4127L4.13339 24.4267L4.10544 24.4406L4.03906 24.4651L4.00762 24.4791L3.9028 24.507L3.83293 24.521L3.75607 24.528L3.72113 24.5315H3.0154V27.0365H9.90152V24.5315H8.65076V12.01L13.0319 27.0365H15.5369L19.9215 12.01V24.5315H18.4471L18.4786 27.0365H26.8076V24.5315H25.8259L25.7979 24.528H25.7735L25.7176 24.521L25.6687 24.514L25.6407 24.507L25.6163 24.5035L25.5673 24.4861L25.5464 24.4791L25.5219 24.4721L25.4975 24.4616L25.4765 24.4476L25.4555 24.4371L25.4101 24.4127L25.3892 24.4022L25.3123 24.3428L25.2948 24.3288L25.2424 24.2764L25.2284 24.259L25.1935 24.217L25.1795 24.1996L25.1621 24.1786L25.1481 24.1576L25.1376 24.1367L25.1201 24.1122L25.1097 24.0913L25.0957 24.0668L25.0608 23.9969L25.0503 23.969L25.0398 23.9445L25.0328 23.9166L25.0118 23.8677L25.0049 23.8362L24.9944 23.8083L24.9874 23.7838L24.9804 23.7524L24.9664 23.6965L24.9594 23.6336L24.949 23.6056V23.5742L24.942 23.5428V23.5078L24.935 23.4764V23.4135L24.9315 23.3785L24.928 23.3471V12.5899L24.9315 12.5445V12.4956L24.9455 12.3279L24.9559 12.2511L24.9769 12.1393L24.9839 12.1043L24.9944 12.0729L25.0153 12.0065L25.0223 11.9785L25.0468 11.9192L25.0608 11.8912L25.0887 11.8388L25.1027 11.8143L25.1201 11.7899L25.1341 11.7654L25.1691 11.72L25.204 11.6816L25.2424 11.6431L25.2809 11.6082L25.3018 11.5907L25.3682 11.5488L25.3927 11.5348L25.4136 11.5244L25.4381 11.5104L25.466 11.4999L25.4905 11.4859L25.5464 11.4685L25.5708 11.4615L25.5988 11.451L25.6267 11.444L25.6826 11.4265L25.7455 11.4196L25.7735 11.4126L25.8049 11.4056L25.8399 11.4021L25.9027 11.3951L25.9691 11.3916L26.1089 11.3846H26.8076V8.25424H18.0419L14.9115 18.8053L11.7811 8.25424H3.0154ZM17.9371 23.2807H18.6672V20.7757L17.9371 23.2807ZM9.90152 23.2807H10.6352L9.90152 20.7757V23.2807Z" fill="black"/>
</svg>
