<svg width="40" height="40" viewBox="0 0 40 40" fill="none" xmlns="http://www.w3.org/2000/svg">
<g clip-path="url(#clip0_745_22)">
<path d="M31.9001 10.0927C28.4365 10.0927 25.409 12.3641 24.4829 15.6734C22.5655 12.7512 21.2859 9.35749 20.8134 8H16.5V18.1149C16.5 19.8456 15.0867 21.254 13.35 21.254C11.6133 21.254 10.2 19.8456 10.2 18.1149V8H6V18.1149C6 22.1539 9.29701 25.4395 13.35 25.4395C17.403 25.4395 20.7 22.1539 20.7 18.1149V17.5617C21.449 18.7483 22.2967 19.9014 23.2396 20.9108C22.3569 24.6373 21.225 29.429 20.6839 31.7177H24.9988C25.5329 29.4583 26.2217 26.5438 26.8482 23.8951C28.2034 24.7252 29.9219 25.4395 31.9001 25.4395C36.1456 25.4395 39.6001 21.9969 39.6001 17.7661C39.6001 13.5353 36.1456 10.0927 31.9001 10.0927Z" stroke="black" stroke-width="1.2" stroke-miterlimit="10" stroke-linejoin="round"/>
<path d="M31.4358 20.8464C30.0007 20.8464 28.6727 19.918 27.7417 19.1087C28.0647 17.6414 28.2839 16.648 28.3142 16.5215C28.6797 14.9947 29.964 13.9287 31.4358 13.9287C33.2133 13.9287 34.6594 15.4803 34.6594 17.3875C34.6594 19.2947 33.2133 20.8464 31.4358 20.8464Z" stroke="black" stroke-width="1.2" stroke-miterlimit="10" stroke-linejoin="round"/>
</g>
<defs>
<clipPath id="clip0_745_22">
<rect width="40" height="40" fill="white"/>
</clipPath>
</defs>
</svg>
