<?xml version="1.0" encoding="UTF-8"?>
<svg xmlns="http://www.w3.org/2000/svg" xmlns:xlink="http://www.w3.org/1999/xlink" viewBox="0 0 25 25" width="25px" height="25px">
<g id="surface11993243">
<path style=" stroke:none;fill-rule:nonzero;fill:rgb(0%,0%,0%);fill-opacity:1;" d="M 0.5 4.5 C 0.222656 4.5 0 4.722656 0 5 L 0 12.25 C 0 15.417969 2.582031 18 5.75 18 C 8.613281 18 10.890625 15.855469 11.324219 13.109375 C 11.632812 13.539062 11.925781 13.972656 12.273438 14.363281 C 11.652344 17 10.878906 20.292969 10.503906 21.886719 C 10.46875 22.035156 10.503906 22.191406 10.597656 22.308594 C 10.691406 22.429688 10.835938 22.5 10.988281 22.5 L 14.070312 22.5 C 14.300781 22.5 14.503906 22.339844 14.558594 22.113281 C 14.898438 20.667969 15.332031 18.832031 15.738281 17.105469 C 16.664062 17.589844 17.734375 18 19 18 C 22.304688 18 25 15.304688 25 12 C 25 8.695312 22.304688 6 19 6 C 16.675781 6 14.664062 7.367188 13.675781 9.394531 C 12.625 7.578125 11.839844 5.660156 11.554688 4.835938 C 11.484375 4.632812 11.292969 4.5 11.082031 4.5 L 8 4.5 C 7.722656 4.5 7.5 4.722656 7.5 5 L 7.5 12.25 C 7.5 13.21875 6.71875 14 5.75 14 C 4.78125 14 4 13.21875 4 12.25 L 4 5 C 4 4.722656 3.777344 4.5 3.5 4.5 Z M 1 5.5 L 3 5.5 L 3 12.25 C 3 13.761719 4.238281 15 5.75 15 C 7.261719 15 8.5 13.761719 8.5 12.25 L 8.5 5.5 L 10.742188 5.5 C 11.136719 6.609375 11.972656 8.769531 13.28125 10.773438 C 13.390625 10.9375 13.585938 11.023438 13.777344 10.996094 C 13.972656 10.964844 14.128906 10.824219 14.183594 10.632812 C 14.785156 8.476562 16.746094 7 19 7 C 21.761719 7 24 9.238281 24 12 C 24 14.761719 21.761719 17 19 17 C 17.707031 17 16.570312 16.53125 15.652344 15.964844 C 15.515625 15.882812 15.347656 15.871094 15.199219 15.929688 C 15.050781 15.992188 14.941406 16.121094 14.90625 16.277344 C 14.488281 18.046875 14.042969 19.933594 13.675781 21.5 L 11.621094 21.5 C 12.035156 19.742188 12.71875 16.828125 13.300781 14.367188 C 13.339844 14.207031 13.292969 14.035156 13.179688 13.914062 C 12.535156 13.21875 11.945312 12.417969 11.421875 11.585938 C 11.304688 11.398438 11.074219 11.3125 10.859375 11.375 C 10.648438 11.433594 10.5 11.632812 10.5 11.851562 L 10.5 12.25 C 10.5 14.875 8.375 17 5.75 17 C 3.125 17 1 14.875 1 12.25 Z M 19 9 C 17.632812 9 16.433594 9.925781 16.09375 11.25 C 16.058594 11.390625 15.898438 12.066406 15.648438 13.128906 C 15.605469 13.316406 15.671875 13.511719 15.820312 13.632812 C 16.578125 14.246094 17.6875 15 19 15 C 20.648438 15 22 13.648438 22 12 C 22 10.351562 20.648438 9 19 9 Z M 19 10 C 20.105469 10 21 10.894531 21 12 C 21 13.105469 20.105469 14 19 14 C 18.183594 14 17.363281 13.519531 16.703125 13.019531 C 16.882812 12.253906 17.054688 11.535156 17.0625 11.5 C 17.289062 10.613281 18.082031 10 19 10 Z M 19 10 "/>
</g>
</svg>
