<svg width="50" height="50" viewBox="0 0 50 50" fill="none" xmlns="http://www.w3.org/2000/svg">
<path d="M34.2083 11.1176C30.7035 11.1176 27.64 13.416 26.7028 16.7647C24.7627 13.8078 23.4679 10.3736 22.9898 9H18.625V19.2353C18.625 20.9866 17.1949 22.4118 15.4375 22.4118C13.6801 22.4118 12.25 20.9866 12.25 19.2353V9H8V19.2353C8 23.3224 11.3362 26.6471 15.4375 26.6471C19.5387 26.6471 22.875 23.3224 22.875 19.2353V18.6755C23.6329 19.8762 24.4907 21.0431 25.4448 22.0645C24.5516 25.8353 23.4062 30.684 22.8587 33H27.2249C27.7653 30.7136 28.4623 27.7645 29.0963 25.0842C30.4676 25.9242 32.2066 26.6471 34.2083 26.6471C38.5044 26.6471 42 23.1635 42 18.8824C42 14.6012 38.5044 11.1176 34.2083 11.1176Z" stroke="black" stroke-width="1.2" stroke-miterlimit="10" stroke-linejoin="round"/>
<path d="M33.7381 22C32.2859 22 30.942 21.0606 30 20.2416C30.3268 18.7569 30.5486 17.7517 30.5793 17.6236C30.9492 16.0787 32.2487 15 33.7381 15C35.5367 15 37 16.5701 37 18.5C37 20.4299 35.5367 22 33.7381 22Z" stroke="black" stroke-width="1.2" stroke-miterlimit="10" stroke-linejoin="round"/>
</svg>
