<svg fill="#000000" xmlns="http://www.w3.org/2000/svg"  viewBox="0 0 50 50" width="30px" height="30px"><path fill="none" stroke="#000000" stroke-linejoin="round" stroke-miterlimit="10" stroke-width="2" d="M38,13	c-4.948,0-9.273,3.256-10.596,8c-2.739-4.189-4.567-9.054-5.242-11H16v14.5c0,2.481-2.019,4.5-4.5,4.5S7,26.981,7,24.5V10H1v14.5	C1,30.29,5.71,35,11.5,35S22,30.29,22,24.5v-0.793c1.07,1.701,2.281,3.354,3.628,4.801C24.367,33.85,22.75,40.719,21.977,44h6.164	c0.763-3.239,1.747-7.417,2.642-11.214C32.719,33.976,35.174,35,38,35c6.065,0,11-4.935,11-11S44.065,13,38,13z"/><path fill="none" stroke="#000000" stroke-linejoin="round" stroke-miterlimit="10" stroke-width="2" d="M38,29	c-2.226,0-4.286-1.342-5.73-2.512c0.501-2.121,0.841-3.557,0.888-3.74C33.725,20.541,35.717,19,38,19c2.757,0,5,2.243,5,5	S40.757,29,38,29z"/></svg>