<svg width="24" height="24" viewBox="0 0 24 24" fill="none" xmlns="http://www.w3.org/2000/svg">
<path d="M0.48 4.32001C0.21375 4.32001 0 4.53376 0 4.80001V11.76C0 14.8013 2.47875 17.28 5.52 17.28C8.26875 17.28 10.455 15.2213 10.8712 12.585C11.1675 12.9975 11.4487 13.4138 11.7825 13.7888C11.1863 16.32 10.4437 19.4813 10.0837 21.0113C10.05 21.1538 10.0837 21.3038 10.1737 21.4163C10.2637 21.5325 10.4025 21.6 10.5487 21.6H13.5075C13.7287 21.6 13.9237 21.4463 13.9762 21.2288C14.3025 19.8413 14.7187 18.0788 15.1087 16.4213C15.9975 16.8863 17.025 17.28 18.24 17.28C21.4125 17.28 24 14.6925 24 11.52C24 8.34751 21.4125 5.76001 18.24 5.76001C16.0087 5.76001 14.0775 7.07251 13.1287 9.01876C12.12 7.27501 11.3663 5.43376 11.0925 4.64251C11.025 4.44751 10.8413 4.32001 10.6387 4.32001H7.68C7.41375 4.32001 7.2 4.53376 7.2 4.80001V11.76C7.2 12.69 6.45 13.44 5.52 13.44C4.59 13.44 3.84 12.69 3.84 11.76V4.80001C3.84 4.53376 3.62625 4.32001 3.36 4.32001H0.48ZM0.96 5.28001H2.88V11.76C2.88 13.2113 4.06875 14.4 5.52 14.4C6.97125 14.4 8.16 13.2113 8.16 11.76V5.28001H10.3125C10.6913 6.34501 11.4937 8.41876 12.75 10.3425C12.855 10.5 13.0425 10.5825 13.2262 10.5563C13.4137 10.5263 13.5637 10.3913 13.6162 10.2075C14.1937 8.13751 16.0762 6.72001 18.24 6.72001C20.8912 6.72001 23.04 8.86876 23.04 11.52C23.04 14.1713 20.8912 16.32 18.24 16.32C16.9987 16.32 15.9075 15.87 15.0262 15.3263C14.895 15.2475 14.7337 15.2363 14.5912 15.2925C14.4487 15.3525 14.3437 15.4763 14.31 15.6263C13.9087 17.325 13.4813 19.1363 13.1287 20.64H11.1562C11.5537 18.9525 12.21 16.155 12.7687 13.7925C12.8063 13.6388 12.7613 13.4738 12.6525 13.3575C12.0337 12.69 11.4675 11.9213 10.965 11.1225C10.8525 10.9425 10.6313 10.86 10.425 10.92C10.2225 10.9763 10.08 11.1675 10.08 11.3775V11.76C10.08 14.28 8.04 16.32 5.52 16.32C3 16.32 0.96 14.28 0.96 11.76V5.28001ZM18.24 8.64001C16.9275 8.64001 15.7762 9.52876 15.45 10.8C15.4162 10.935 15.2625 11.5838 15.0225 12.6038C14.9813 12.7838 15.045 12.9713 15.1875 13.0875C15.915 13.6763 16.98 14.4 18.24 14.4C19.8225 14.4 21.12 13.1025 21.12 11.52C21.12 9.93751 19.8225 8.64001 18.24 8.64001ZM18.24 9.60001C19.3012 9.60001 20.16 10.4588 20.16 11.52C20.16 12.5813 19.3012 13.44 18.24 13.44C17.4562 13.44 16.6687 12.9788 16.035 12.4988C16.2075 11.7638 16.3725 11.0738 16.38 11.04C16.5975 10.1888 17.3587 9.60001 18.24 9.60001Z" fill="black"/>
</svg>
