<svg width="36" height="26" viewBox="0 0 36 26" fill="none" xmlns="http://www.w3.org/2000/svg">
<path d="M27.2083 3.11765C23.7035 3.11765 20.64 5.416 19.7028 8.76471C17.7627 5.80776 16.4679 2.37365 15.9898 1H11.625V11.2353C11.625 12.9866 10.1949 14.4118 8.4375 14.4118C6.68012 14.4118 5.25 12.9866 5.25 11.2353V1H1V11.2353C1 15.3224 4.33625 18.6471 8.4375 18.6471C12.5387 18.6471 15.875 15.3224 15.875 11.2353V10.6755C16.6329 11.8762 17.4907 13.0431 18.4448 14.0645C17.5516 17.8353 16.4062 22.684 15.8587 25H20.2249C20.7653 22.7136 21.4623 19.7645 22.0963 17.0842C23.4676 17.9242 25.2066 18.6471 27.2083 18.6471C31.5044 18.6471 35 15.1635 35 10.8824C35 6.60118 31.5044 3.11765 27.2083 3.11765Z" stroke="black" stroke-width="1.2" stroke-miterlimit="10" stroke-linejoin="round"/>
<path d="M26.7381 14C25.2859 14 23.942 13.0606 23 12.2416C23.3268 10.7569 23.5486 9.7517 23.5793 9.6236C23.9492 8.0787 25.2487 7 26.7381 7C28.5367 7 30 8.5701 30 10.5C30 12.4299 28.5367 14 26.7381 14Z" stroke="black" stroke-width="1.2" stroke-miterlimit="10" stroke-linejoin="round"/>
</svg>
