<svg width="40" height="40" viewBox="0 0 40 40" fill="none" xmlns="http://www.w3.org/2000/svg">
<path d="M20.1001 8C17.6357 8 15.3429 8.74114 13.4294 10.0098C13.3194 10.0724 13.2097 10.1357 13.1068 10.2071C13.0611 10.2379 13.0205 10.2757 12.9866 10.3191C9.96659 12.5207 8 16.0825 8 20.1001C8 26.7755 13.4247 32.2002 20.1001 32.2002C23.3363 32.2002 26.2697 30.9168 28.4415 28.8423C28.5059 28.8024 28.5609 28.7491 28.6028 28.6861C30.4657 26.8398 31.7403 24.4007 32.0954 21.6702C32.1005 21.6437 32.1036 21.6169 32.1046 21.59C32.1649 21.1014 32.2002 20.6048 32.2002 20.1001C32.2002 18.9633 32.0401 17.8639 31.746 16.8202C31.7393 16.7669 31.7244 16.7149 31.7018 16.6661L31.6998 16.662C30.2155 11.6584 25.581 8 20.1001 8ZM20.1001 9.05218C24.967 9.05218 29.0905 12.1924 30.5654 16.5582C30.5635 16.5616 30.5602 16.5663 30.5582 16.5695C30.5244 16.6245 30.4998 16.6692 30.475 16.7093C30.3757 16.8695 30.3732 16.9436 30.0958 16.9436C29.76 16.9436 29.2877 16.6059 28.7035 15.9006C28.1194 15.1953 27.4571 14.2027 26.6423 13.1931C25.081 11.2583 22.8836 9.23586 19.4939 9.06965C19.6946 9.05882 19.8967 9.05218 20.1001 9.05218ZM17.9957 10.1023V10.1044C17.9957 10.2439 18.0512 10.3777 18.1498 10.4764C18.2485 10.575 18.3823 10.6305 18.5218 10.6305C18.6614 10.6305 18.7952 10.575 18.8938 10.4764C18.9925 10.3777 19.0479 10.2439 19.0479 10.1044C19.8595 10.1044 20.5912 10.2187 21.2571 10.4198H21.2581C21.307 10.4851 21.3705 10.5381 21.4434 10.5747C21.5163 10.6112 21.5968 10.6303 21.6784 10.6305C21.7224 10.6301 21.7663 10.6243 21.8089 10.613C22.2359 10.7816 22.6332 10.9869 23.007 11.2203C22.9235 11.2653 22.8537 11.332 22.8051 11.4134C22.7564 11.4948 22.7307 11.5878 22.7306 11.6826C22.7306 11.8222 22.786 11.956 22.8846 12.0546C22.9833 12.1533 23.1171 12.2087 23.2566 12.2087C23.3821 12.2088 23.5035 12.1639 23.5988 12.0824C23.6942 12.0008 23.7572 11.8878 23.7766 11.7638C24.1546 12.0629 24.5013 12.3926 24.8318 12.7348C24.6928 12.7356 24.5598 12.7914 24.4618 12.89C24.3638 12.9886 24.3088 13.1219 24.3088 13.2609C24.3088 13.4004 24.3643 13.5343 24.4629 13.6329C24.5616 13.7316 24.6954 13.787 24.8349 13.787C24.9666 13.787 25.0935 13.7376 25.1905 13.6485C25.2875 13.5595 25.3476 13.4373 25.359 13.3061C25.5168 13.4878 25.6741 13.6698 25.8234 13.8548C25.9575 14.021 26.0835 14.1871 26.2108 14.3532C26.1148 14.3932 26.0329 14.4607 25.9753 14.5471C25.9177 14.6336 25.887 14.7353 25.8871 14.8392C25.8871 14.9787 25.9425 15.1125 26.0412 15.2112C26.1399 15.3098 26.2737 15.3653 26.4132 15.3653C26.4919 15.3652 26.5697 15.3474 26.6406 15.3132C26.7116 15.2791 26.774 15.2295 26.8232 15.168C27.0721 15.506 27.3122 15.8289 27.5476 16.1339C27.4937 16.2186 27.4651 16.317 27.4654 16.4175C27.4654 16.557 27.5208 16.6908 27.6195 16.7895C27.7181 16.8881 27.8519 16.9436 27.9915 16.9436C28.0595 16.9435 28.1268 16.9302 28.1898 16.9045C28.4841 17.231 28.7881 17.5219 29.1238 17.7173C29.0715 17.8008 29.0438 17.8972 29.0436 17.9957C29.0436 18.1353 29.0991 18.2691 29.1977 18.3677C29.2964 18.4664 29.4302 18.5218 29.5697 18.5218C29.7093 18.5218 29.8431 18.4664 29.9417 18.3677C30.0404 18.2691 30.0958 18.1353 30.0958 17.9957C30.4352 17.9957 30.6901 17.8774 30.8911 17.7296C30.9853 18.1611 31.0517 18.6025 31.0946 19.051C30.965 19.0642 30.845 19.125 30.7577 19.2216C30.6704 19.3182 30.622 19.4438 30.6219 19.574C30.6219 19.7135 30.6773 19.8473 30.776 19.946C30.8747 20.0447 31.0085 20.1001 31.148 20.1001C31.148 20.3958 31.1327 20.6878 31.11 20.9776C30.3956 20.8356 29.4571 20.3961 28.4754 19.7785C28.503 19.7138 28.5173 19.6443 28.5176 19.574C28.5176 19.4345 28.4621 19.3007 28.3635 19.202C28.2648 19.1033 28.131 19.0479 27.9915 19.0479C27.9223 19.0481 27.8539 19.0618 27.79 19.0885C27.7262 19.1151 27.6683 19.154 27.6195 19.2031C27.2901 18.9701 26.9626 18.7273 26.6341 18.4725C26.7251 18.4304 26.8022 18.3631 26.8563 18.2787C26.9104 18.1942 26.9392 18.096 26.9393 17.9957C26.9393 17.8562 26.8839 17.7224 26.7852 17.6237C26.6865 17.5251 26.5527 17.4696 26.4132 17.4696C26.2924 17.4697 26.1753 17.5112 26.0816 17.5874C25.9879 17.6636 25.9232 17.7696 25.8984 17.8878C25.5139 17.5731 25.1408 17.2568 24.7794 16.9405C24.7979 16.9425 24.8164 16.9435 24.8349 16.9436C24.9744 16.9436 25.1083 16.8881 25.2069 16.7895C25.3056 16.6908 25.361 16.557 25.361 16.4175C25.361 16.2779 25.3056 16.1441 25.2069 16.0455C25.1083 15.9468 24.9744 15.8914 24.8349 15.8914C24.6954 15.8914 24.5616 15.9468 24.4629 16.0455C24.3643 16.1441 24.3088 16.2779 24.3088 16.4175C24.3088 16.4586 24.3136 16.4997 24.3232 16.5397C23.9136 16.1794 23.4752 15.7551 23.0213 15.3098C23.0944 15.3463 23.175 15.3653 23.2566 15.3653C23.3962 15.3653 23.53 15.3098 23.6286 15.2112C23.7273 15.1125 23.7827 14.9787 23.7827 14.8392C23.7827 14.6997 23.7273 14.5658 23.6286 14.4672C23.53 14.3685 23.3962 14.3131 23.2566 14.3131C23.1171 14.3131 22.9833 14.3685 22.8846 14.4672C22.786 14.5658 22.7306 14.6997 22.7306 14.8392C22.731 14.9245 22.7521 15.0084 22.7922 15.0837C22.0567 14.3606 21.2718 13.5913 20.4279 12.89C18.9456 11.6581 17.2689 10.6305 15.3653 10.6305C15.0606 10.6305 14.7787 10.6473 14.5094 10.6726C14.6735 10.6112 14.8484 10.5568 15.0272 10.5061C15.1218 10.5861 15.2415 10.6301 15.3653 10.6305C15.467 10.6302 15.5665 10.6005 15.6516 10.5448C15.7368 10.4892 15.804 10.4101 15.8451 10.3171C16.2187 10.2469 16.5965 10.1936 16.9549 10.1609C17.3433 10.1254 17.6858 10.1106 17.9957 10.1023ZM20.1001 11.1565C19.9606 11.1565 19.8268 11.212 19.7281 11.3106C19.6294 11.4093 19.574 11.5431 19.574 11.6826C19.574 11.8222 19.6294 11.956 19.7281 12.0546C19.8268 12.1533 19.9606 12.2087 20.1001 12.2087C20.2396 12.2087 20.3734 12.1533 20.4721 12.0546C20.5708 11.956 20.6262 11.8222 20.6262 11.6826C20.6262 11.5431 20.5708 11.4093 20.4721 11.3106C20.3734 11.212 20.2396 11.1565 20.1001 11.1565ZM15.3653 11.6826C16.8834 11.6826 18.3539 12.5354 19.7549 13.6997C21.1558 14.8639 22.4565 16.3108 23.679 17.3772C24.872 18.4429 26.269 19.5987 27.6431 20.5019C28.7987 21.2614 29.923 21.857 30.9774 22.0298C30.9144 22.3883 30.8337 22.7404 30.737 23.0861C26.8882 22.9733 24.0108 20.9418 21.3824 18.8219C18.6781 16.6406 16.2616 14.3131 13.2609 14.3131C11.9662 14.3131 10.9277 14.7774 10.1506 15.319C10.5752 14.4362 11.1088 13.618 11.7422 12.8848C11.7839 12.8564 11.8213 12.8222 11.8532 12.7831C11.8532 12.7831 12.0244 12.5558 12.5725 12.2704C13.1205 11.985 14.0103 11.6826 15.3653 11.6826ZM21.6784 12.7348C21.5388 12.7348 21.405 12.7902 21.3064 12.8889C21.2077 12.9876 21.1523 13.1214 21.1523 13.2609C21.1523 13.4004 21.2077 13.5343 21.3064 13.6329C21.405 13.7316 21.5388 13.787 21.6784 13.787C21.8179 13.787 21.9517 13.7316 22.0504 13.6329C22.149 13.5343 22.2045 13.4004 22.2045 13.2609C22.2045 13.1214 22.149 12.9876 22.0504 12.8889C21.9517 12.7902 21.8179 12.7348 21.6784 12.7348ZM13.2609 15.3653C14.0268 15.3653 14.7774 15.571 15.5328 15.9201C15.4789 15.9015 15.4223 15.8918 15.3653 15.8914C15.2257 15.8914 15.0919 15.9468 14.9933 16.0455C14.8946 16.1441 14.8392 16.2779 14.8392 16.4175C14.8392 16.557 14.8946 16.6908 14.9933 16.7895C15.0919 16.8881 15.2257 16.9436 15.3653 16.9436C15.5048 16.9436 15.6386 16.8881 15.7373 16.7895C15.8359 16.6908 15.8914 16.557 15.8914 16.4175C15.8913 16.332 15.8703 16.2479 15.8304 16.1723C15.7905 16.0968 15.7328 16.0321 15.6622 15.9838C17.2655 16.7589 18.8926 18.1654 20.7217 19.6408C21.3622 20.1574 22.0296 20.6776 22.7316 21.1728C22.7369 21.3086 22.7945 21.437 22.8924 21.5313C22.9903 21.6255 23.1208 21.6782 23.2566 21.6784C23.3191 21.678 23.3811 21.6665 23.4395 21.6445C23.7919 21.8751 24.1544 22.0948 24.5256 22.3052C24.4585 22.3539 24.4039 22.4179 24.3662 22.4918C24.3285 22.5658 24.3089 22.6476 24.3088 22.7306C24.3088 22.8701 24.3643 23.0039 24.4629 23.1026C24.5616 23.2012 24.6954 23.2566 24.8349 23.2566C24.9698 23.2566 25.0994 23.2047 25.1971 23.1118C25.2948 23.0188 25.3531 22.8919 25.36 22.7573C26.5194 23.3299 27.7747 23.7706 29.1526 23.9893C29.0821 24.0809 29.0439 24.1932 29.0436 24.3088C29.0436 24.4484 29.0991 24.5822 29.1977 24.6808C29.2964 24.7795 29.4302 24.8349 29.5697 24.8349C29.7093 24.8349 29.8431 24.7795 29.9417 24.6808C30.0404 24.5822 30.0958 24.4484 30.0958 24.3088C30.0956 24.2359 30.0802 24.1638 30.0506 24.0972C30.1638 24.1066 30.2749 24.1196 30.3897 24.1259C30.1387 24.7678 29.8219 25.3751 29.4608 25.9518C29.325 26.0228 27.5346 26.9393 25.361 26.9393C22.6913 26.9393 20.6572 26.5682 19.0161 26.0649C19.0368 26.0079 19.0476 25.9477 19.0479 25.8871C19.0479 25.7476 18.9925 25.6138 18.8938 25.5151C18.7952 25.4164 18.6614 25.361 18.5218 25.361C18.4103 25.3612 18.3017 25.3969 18.2118 25.4628C18.1218 25.5287 18.0552 25.6215 18.0214 25.7278C17.5148 25.5399 17.0417 25.3434 16.6076 25.1452C15.6797 24.7217 14.8986 24.286 14.1579 23.9358C14.0687 23.8469 13.9506 23.793 13.825 23.7838H13.824C13.1107 23.4708 12.4261 23.2566 11.6826 23.2566C10.7883 23.2566 10.1531 23.6635 9.78892 24.0694C9.66285 23.7417 9.5543 23.4053 9.45908 23.0635C9.53603 22.9696 9.57814 22.852 9.57827 22.7306C9.57809 22.6294 9.54871 22.5303 9.49367 22.4454C9.43863 22.3605 9.36026 22.2932 9.26796 22.2517C9.12979 21.5556 9.05218 20.8372 9.05218 20.1001C9.19171 20.1001 9.32552 20.0447 9.42418 19.946C9.52285 19.8473 9.57827 19.7135 9.57827 19.574C9.57821 19.444 9.52998 19.3185 9.44288 19.2219C9.35578 19.1254 9.236 19.0645 9.10664 19.051C9.15332 18.5634 9.22756 18.0839 9.33475 17.6166C9.34973 17.5983 9.36346 17.5791 9.37585 17.559C9.37585 17.559 10.7466 15.3653 13.2609 15.3653ZM12.2087 15.8914C12.0692 15.8914 11.9354 15.9468 11.8367 16.0455C11.7381 16.1441 11.6826 16.2779 11.6826 16.4175C11.6826 16.557 11.7381 16.6908 11.8367 16.7895C11.9354 16.8881 12.0692 16.9436 12.2087 16.9436C12.3483 16.9436 12.4821 16.8881 12.5807 16.7895C12.6794 16.6908 12.7348 16.557 12.7348 16.4175C12.7348 16.2779 12.6794 16.1441 12.5807 16.0455C12.4821 15.9468 12.3483 15.8914 12.2087 15.8914ZM10.6305 17.4696C10.4909 17.4696 10.3571 17.5251 10.2585 17.6237C10.1598 17.7224 10.1044 17.8562 10.1044 17.9957C10.1044 18.1353 10.1598 18.2691 10.2585 18.3677C10.3571 18.4664 10.4909 18.5218 10.6305 18.5218C10.77 18.5218 10.9038 18.4664 11.0025 18.3677C11.1011 18.2691 11.1565 18.1353 11.1565 17.9957C11.1565 17.8562 11.1011 17.7224 11.0025 17.6237C10.9038 17.5251 10.77 17.4696 10.6305 17.4696ZM13.787 17.4696C13.6475 17.4696 13.5137 17.5251 13.415 17.6237C13.3163 17.7224 13.2609 17.8562 13.2609 17.9957C13.2609 18.1353 13.3163 18.2691 13.415 18.3677C13.5137 18.4664 13.6475 18.5218 13.787 18.5218C13.9265 18.5218 14.0603 18.4664 14.159 18.3677C14.2577 18.2691 14.3131 18.1353 14.3131 17.9957C14.3131 17.8562 14.2577 17.7224 14.159 17.6237C14.0603 17.5251 13.9265 17.4696 13.787 17.4696ZM16.9436 17.4696C16.804 17.4696 16.6702 17.5251 16.5715 17.6237C16.4729 17.7224 16.4175 17.8562 16.4175 17.9957C16.4175 18.1353 16.4729 18.2691 16.5715 18.3677C16.6702 18.4664 16.804 18.5218 16.9436 18.5218C17.0831 18.5218 17.2169 18.4664 17.3156 18.3677C17.4142 18.2691 17.4696 18.1353 17.4696 17.9957C17.4696 17.8562 17.4142 17.7224 17.3156 17.6237C17.2169 17.5251 17.0831 17.4696 16.9436 17.4696ZM12.2087 19.0479C12.0692 19.0479 11.9354 19.1033 11.8367 19.202C11.7381 19.3007 11.6826 19.4345 11.6826 19.574C11.6826 19.7135 11.7381 19.8473 11.8367 19.946C11.9354 20.0447 12.0692 20.1001 12.2087 20.1001C12.3483 20.1001 12.4821 20.0447 12.5807 19.946C12.6794 19.8473 12.7348 19.7135 12.7348 19.574C12.7348 19.4345 12.6794 19.3007 12.5807 19.202C12.4821 19.1033 12.3483 19.0479 12.2087 19.0479ZM15.3653 19.0479C15.2257 19.0479 15.0919 19.1033 14.9933 19.202C14.8946 19.3007 14.8392 19.4345 14.8392 19.574C14.8392 19.7135 14.8946 19.8473 14.9933 19.946C15.0919 20.0447 15.2257 20.1001 15.3653 20.1001C15.5048 20.1001 15.6386 20.0447 15.7373 19.946C15.8359 19.8473 15.8914 19.7135 15.8914 19.574C15.8914 19.4345 15.8359 19.3007 15.7373 19.202C15.6386 19.1033 15.5048 19.0479 15.3653 19.0479ZM18.5218 19.0479C18.3823 19.0479 18.2485 19.1033 18.1498 19.202C18.0512 19.3007 17.9957 19.4345 17.9957 19.574C17.9957 19.7135 18.0512 19.8473 18.1498 19.946C18.2485 20.0447 18.3823 20.1001 18.5218 20.1001C18.6614 20.1001 18.7952 20.0447 18.8938 19.946C18.9925 19.8473 19.0479 19.7135 19.0479 19.574C19.0479 19.4345 18.9925 19.3007 18.8938 19.202C18.7952 19.1033 18.6614 19.0479 18.5218 19.0479ZM10.6305 20.6262C10.4909 20.6262 10.3571 20.6816 10.2585 20.7803C10.1598 20.8789 10.1044 21.0128 10.1044 21.1523C10.1044 21.2918 10.1598 21.4256 10.2585 21.5243C10.3571 21.6229 10.4909 21.6784 10.6305 21.6784C10.77 21.6784 10.9038 21.6229 11.0025 21.5243C11.1011 21.4256 11.1565 21.2918 11.1565 21.1523C11.1565 21.0128 11.1011 20.8789 11.0025 20.7803C10.9038 20.6816 10.77 20.6262 10.6305 20.6262ZM13.787 20.6262C13.6475 20.6262 13.5137 20.6816 13.415 20.7803C13.3163 20.8789 13.2609 21.0128 13.2609 21.1523C13.2609 21.2918 13.3163 21.4256 13.415 21.5243C13.5137 21.6229 13.6475 21.6784 13.787 21.6784C13.9265 21.6784 14.0603 21.6229 14.159 21.5243C14.2577 21.4256 14.3131 21.2918 14.3131 21.1523C14.3131 21.0128 14.2577 20.8789 14.159 20.7803C14.0603 20.6816 13.9265 20.6262 13.787 20.6262ZM16.9436 20.6262C16.804 20.6262 16.6702 20.6816 16.5715 20.7803C16.4729 20.8789 16.4175 21.0128 16.4175 21.1523C16.4175 21.2918 16.4729 21.4256 16.5715 21.5243C16.6702 21.6229 16.804 21.6784 16.9436 21.6784C17.0831 21.6784 17.2169 21.6229 17.3156 21.5243C17.4142 21.4256 17.4696 21.2918 17.4696 21.1523C17.4696 21.0128 17.4142 20.8789 17.3156 20.7803C17.2169 20.6816 17.0831 20.6262 16.9436 20.6262ZM20.1001 20.6262C19.9606 20.6262 19.8268 20.6816 19.7281 20.7803C19.6294 20.8789 19.574 21.0128 19.574 21.1523C19.574 21.2918 19.6294 21.4256 19.7281 21.5243C19.8268 21.6229 19.9606 21.6784 20.1001 21.6784C20.2396 21.6784 20.3734 21.6229 20.4721 21.5243C20.5708 21.4256 20.6262 21.2918 20.6262 21.1523C20.6262 21.0128 20.5708 20.8789 20.4721 20.7803C20.3734 20.6816 20.2396 20.6262 20.1001 20.6262ZM12.2087 22.2045C12.0692 22.2045 11.9354 22.2599 11.8367 22.3586C11.7381 22.4572 11.6826 22.591 11.6826 22.7306C11.6826 22.8701 11.7381 23.0039 11.8367 23.1026C11.9354 23.2012 12.0692 23.2566 12.2087 23.2566C12.3483 23.2566 12.4821 23.2012 12.5807 23.1026C12.6794 23.0039 12.7348 22.8701 12.7348 22.7306C12.7348 22.591 12.6794 22.4572 12.5807 22.3586C12.4821 22.2599 12.3483 22.2045 12.2087 22.2045ZM15.3653 22.2045C15.2257 22.2045 15.0919 22.2599 14.9933 22.3586C14.8946 22.4572 14.8392 22.591 14.8392 22.7306C14.8392 22.8701 14.8946 23.0039 14.9933 23.1026C15.0919 23.2012 15.2257 23.2566 15.3653 23.2566C15.5048 23.2566 15.6386 23.2012 15.7373 23.1026C15.8359 23.0039 15.8914 22.8701 15.8914 22.7306C15.8914 22.591 15.8359 22.4572 15.7373 22.3586C15.6386 22.2599 15.5048 22.2045 15.3653 22.2045ZM18.5218 22.2045C18.3823 22.2045 18.2485 22.2599 18.1498 22.3586C18.0512 22.4572 17.9957 22.591 17.9957 22.7306C17.9957 22.8701 18.0512 23.0039 18.1498 23.1026C18.2485 23.2012 18.3823 23.2566 18.5218 23.2566C18.6614 23.2566 18.7952 23.2012 18.8938 23.1026C18.9925 23.0039 19.0479 22.8701 19.0479 22.7306C19.0479 22.591 18.9925 22.4572 18.8938 22.3586C18.7952 22.2599 18.6614 22.2045 18.5218 22.2045ZM21.6784 22.2045C21.5388 22.2045 21.405 22.2599 21.3064 22.3586C21.2077 22.4572 21.1523 22.591 21.1523 22.7306C21.1523 22.8701 21.2077 23.0039 21.3064 23.1026C21.405 23.2012 21.5388 23.2566 21.6784 23.2566C21.8179 23.2566 21.9517 23.2012 22.0504 23.1026C22.149 23.0039 22.2045 22.8701 22.2045 22.7306C22.2045 22.591 22.149 22.4572 22.0504 22.3586C21.9517 22.2599 21.8179 22.2045 21.6784 22.2045ZM16.9436 23.7827C16.804 23.7827 16.6702 23.8382 16.5715 23.9368C16.4729 24.0355 16.4175 24.1693 16.4175 24.3088C16.4175 24.4484 16.4729 24.5822 16.5715 24.6808C16.6702 24.7795 16.804 24.8349 16.9436 24.8349C17.0831 24.8349 17.2169 24.7795 17.3156 24.6808C17.4142 24.5822 17.4696 24.4484 17.4696 24.3088C17.4696 24.1693 17.4142 24.0355 17.3156 23.9368C17.2169 23.8382 17.0831 23.7827 16.9436 23.7827ZM20.1001 23.7827C19.9606 23.7827 19.8268 23.8382 19.7281 23.9368C19.6294 24.0355 19.574 24.1693 19.574 24.3088C19.574 24.4484 19.6294 24.5822 19.7281 24.6808C19.8268 24.7795 19.9606 24.8349 20.1001 24.8349C20.2396 24.8349 20.3734 24.7795 20.4721 24.6808C20.5708 24.5822 20.6262 24.4484 20.6262 24.3088C20.6262 24.1693 20.5708 24.0355 20.4721 23.9368C20.3734 23.8382 20.2396 23.7827 20.1001 23.7827ZM23.2566 23.7827C23.1171 23.7827 22.9833 23.8382 22.8846 23.9368C22.786 24.0355 22.7306 24.1693 22.7306 24.3088C22.7306 24.4484 22.786 24.5822 22.8846 24.6808C22.9833 24.7795 23.1171 24.8349 23.2566 24.8349C23.3962 24.8349 23.53 24.7795 23.6286 24.6808C23.7273 24.5822 23.7827 24.4484 23.7827 24.3088C23.7827 24.1693 23.7273 24.0355 23.6286 23.9368C23.53 23.8382 23.3962 23.7827 23.2566 23.7827ZM26.4132 23.7827C26.2737 23.7827 26.1399 23.8382 26.0412 23.9368C25.9425 24.0355 25.8871 24.1693 25.8871 24.3088C25.8871 24.4484 25.9425 24.5822 26.0412 24.6808C26.1399 24.7795 26.2737 24.8349 26.4132 24.8349C26.5527 24.8349 26.6865 24.7795 26.7852 24.6808C26.8839 24.5822 26.9393 24.4484 26.9393 24.3088C26.9393 24.1693 26.8839 24.0355 26.7852 23.9368C26.6865 23.8382 26.5527 23.7827 26.4132 23.7827ZM11.6826 24.3088C12.8332 24.3088 14.1115 25.1628 16.1709 26.1029C18.2302 27.0429 21.0575 27.9915 25.361 27.9915C26.4596 27.9915 27.455 27.7815 28.2504 27.5435C28.1167 27.6898 27.9786 27.8319 27.8373 27.9709C27.6844 28.0536 25.798 29.0436 22.7306 29.0436C21.1533 29.0436 19.9203 28.6725 18.8475 28.2853C17.7748 27.8982 16.8684 27.4654 15.8914 27.4654C15.2789 27.4654 14.7488 27.7496 14.5381 28.1908C14.3275 28.632 14.387 29.0795 14.4837 29.4783C14.4971 29.5338 14.5184 29.5831 14.534 29.6376C12.74 28.5866 11.2664 27.0478 10.3027 25.1976C10.3179 25.1528 10.3783 24.9887 10.5616 24.7805C10.7717 24.5418 11.0786 24.3088 11.6826 24.3088ZM21.6784 25.361C21.5388 25.361 21.405 25.4164 21.3064 25.5151C21.2077 25.6138 21.1523 25.7476 21.1523 25.8871C21.1523 26.0266 21.2077 26.1604 21.3064 26.2591C21.405 26.3578 21.5388 26.4132 21.6784 26.4132C21.8179 26.4132 21.9517 26.3578 22.0504 26.2591C22.149 26.1604 22.2045 26.0266 22.2045 25.8871C22.2045 25.7476 22.149 25.6138 22.0504 25.5151C21.9517 25.4164 21.8179 25.361 21.6784 25.361ZM24.8349 25.361C24.6954 25.361 24.5616 25.4164 24.4629 25.5151C24.3643 25.6138 24.3088 25.7476 24.3088 25.8871C24.3088 26.0266 24.3643 26.1604 24.4629 26.2591C24.5616 26.3578 24.6954 26.4132 24.8349 26.4132C24.9744 26.4132 25.1083 26.3578 25.2069 26.2591C25.3056 26.1604 25.361 26.0266 25.361 25.8871C25.361 25.7476 25.3056 25.6138 25.2069 25.5151C25.1083 25.4164 24.9744 25.361 24.8349 25.361ZM27.9915 25.361C27.8519 25.361 27.7181 25.4164 27.6195 25.5151C27.5208 25.6138 27.4654 25.7476 27.4654 25.8871C27.4654 26.0266 27.5208 26.1604 27.6195 26.2591C27.7181 26.3578 27.8519 26.4132 27.9915 26.4132C28.131 26.4132 28.2648 26.3578 28.3635 26.2591C28.4621 26.1604 28.5176 26.0266 28.5176 25.8871C28.5176 25.7476 28.4621 25.6138 28.3635 25.5151C28.2648 25.4164 28.131 25.361 27.9915 25.361ZM15.8914 28.5176C16.5247 28.5176 17.377 28.8739 18.491 29.2759C19.605 29.6779 20.9866 30.0958 22.7306 30.0958C23.6733 30.0958 24.514 29.9998 25.2541 29.8657C24.78 30.1175 24.2846 30.3346 23.7725 30.5161C23.7481 30.3973 23.6834 30.2906 23.5894 30.2141C23.4954 30.1375 23.3779 30.0957 23.2566 30.0958C23.1171 30.0958 22.9833 30.1513 22.8846 30.2499C22.786 30.3486 22.7306 30.4824 22.7306 30.6219C22.7306 30.6892 22.7435 30.7558 22.7686 30.8182C21.9143 31.0312 21.0215 31.148 20.1001 31.148C20.2396 31.148 20.3734 31.0926 20.4721 30.9939C20.5708 30.8953 20.6262 30.7615 20.6262 30.6219C20.6262 30.4824 20.5708 30.3486 20.4721 30.2499C20.3734 30.1513 20.2396 30.0958 20.1001 30.0958C19.9606 30.0958 19.8268 30.1513 19.7281 30.2499C19.6294 30.3486 19.574 30.4824 19.574 30.6219C19.5739 30.7546 19.6239 30.8824 19.714 30.9798C19.8041 31.0772 19.9277 31.1369 20.06 31.147C19.1529 31.1437 18.274 31.0264 17.4316 30.8172C17.4566 30.7551 17.4695 30.6888 17.4696 30.6219C17.4696 30.4824 17.4142 30.3486 17.3156 30.2499C17.2169 30.1513 17.0831 30.0958 16.9436 30.0958C16.8219 30.0959 16.704 30.1381 16.6099 30.2153C16.5159 30.2924 16.4515 30.3998 16.4277 30.5192C16.2722 30.4643 16.1197 30.403 15.9674 30.3414C15.9044 30.229 15.7379 29.9168 15.5975 29.5143C15.6855 29.471 15.7596 29.404 15.8115 29.3208C15.8634 29.2377 15.8911 29.1417 15.8914 29.0436C15.8914 28.9387 15.8599 28.8361 15.8012 28.7491C15.7424 28.6621 15.6589 28.5947 15.5615 28.5556C15.6116 28.532 15.7037 28.5176 15.8914 28.5176Z" fill="black"/>
</svg>
