<svg width="27" height="27" viewBox="0 0 27 27" fill="none" xmlns="http://www.w3.org/2000/svg">
<path d="M13.5 0C10.7505 0 8.19243 0.82689 6.05757 2.24236C5.93479 2.31214 5.81241 2.38276 5.69761 2.46247C5.64663 2.49684 5.60137 2.539 5.56348 2.58742C2.19411 5.0437 0 9.01759 0 13.5C0 20.9477 6.0523 27 13.5 27C17.1107 27 20.3834 25.5682 22.8065 23.2536C22.8783 23.2091 22.9397 23.1497 22.9865 23.0793C25.0649 21.0194 26.487 18.2981 26.8831 15.2517C26.8888 15.2222 26.8922 15.1923 26.8934 15.1623C26.9606 14.6171 27 14.0631 27 13.5C27 12.2317 26.8213 11.0051 26.4933 9.84069C26.4857 9.78119 26.4691 9.7232 26.444 9.66873L26.4417 9.66415C24.7857 4.0816 19.615 0 13.5 0ZM13.5 1.17391C18.9299 1.17391 23.5305 4.67744 25.1761 9.54836C25.1739 9.55211 25.1703 9.55735 25.1681 9.56097C25.1304 9.6223 25.1029 9.6722 25.0752 9.71688C24.9645 9.89559 24.9617 9.97826 24.6522 9.97826C24.2775 9.97826 23.7505 9.60157 23.0988 8.81467C22.4471 8.02776 21.7081 6.92032 20.7991 5.7939C19.0572 3.63527 16.6055 1.37884 12.8236 1.1934C13.0475 1.18132 13.273 1.17391 13.5 1.17391ZM11.1522 2.34553V2.34783C11.1522 2.5035 11.214 2.65279 11.3241 2.76287C11.4342 2.87294 11.5835 2.93478 11.7391 2.93478C11.8948 2.93478 12.0441 2.87294 12.1542 2.76287C12.2642 2.65279 12.3261 2.5035 12.3261 2.34783C13.2315 2.34783 14.0479 2.4754 14.7908 2.69977H14.792C14.8466 2.77262 14.9173 2.83177 14.9987 2.87256C15.0801 2.91335 15.1698 2.93465 15.2609 2.93478C15.31 2.93441 15.3589 2.92786 15.4065 2.91529C15.8829 3.10337 16.3262 3.3325 16.7432 3.59282C16.65 3.64303 16.5722 3.71748 16.5179 3.80829C16.4637 3.8991 16.4349 4.0029 16.4348 4.1087C16.4348 4.26437 16.4966 4.41366 16.6067 4.52374C16.7168 4.63381 16.8661 4.69565 17.0217 4.69565C17.1617 4.69569 17.2971 4.64568 17.4035 4.55466C17.5099 4.46363 17.5802 4.33759 17.6018 4.19926C18.0236 4.53298 18.4104 4.90085 18.7792 5.28261C18.6241 5.28352 18.4757 5.34576 18.3663 5.45574C18.257 5.56571 18.1956 5.71449 18.1957 5.86957C18.1957 6.02524 18.2575 6.17453 18.3676 6.28461C18.4776 6.39468 18.6269 6.45652 18.7826 6.45652C18.9295 6.45649 19.0711 6.40137 19.1793 6.30203C19.2876 6.2027 19.3546 6.06638 19.3673 5.92001C19.5434 6.12266 19.7188 6.32571 19.8854 6.53218C20.0351 6.7176 20.1757 6.90292 20.3176 7.08819C20.2106 7.1328 20.1192 7.20811 20.0549 7.30461C19.9907 7.40111 19.9564 7.51449 19.9565 7.63044C19.9565 7.78611 20.0184 7.9354 20.1284 8.04548C20.2385 8.15555 20.3878 8.21739 20.5435 8.21739C20.6313 8.21728 20.718 8.19744 20.7972 8.15934C20.8764 8.12125 20.946 8.06587 21.0009 7.99728C21.2787 8.37444 21.5466 8.73466 21.8091 9.0749C21.749 9.16945 21.7171 9.27924 21.7174 9.3913C21.7174 9.54698 21.7792 9.69627 21.8893 9.80635C21.9994 9.91642 22.1487 9.97826 22.3043 9.97826C22.3802 9.97818 22.4554 9.96338 22.5256 9.9347C22.854 10.299 23.1931 10.6235 23.5677 10.8415C23.5094 10.9346 23.4784 11.0423 23.4783 11.1522C23.4783 11.3078 23.5401 11.4571 23.6502 11.5672C23.7603 11.6773 23.9095 11.7391 24.0652 11.7391C24.2209 11.7391 24.3702 11.6773 24.4803 11.5672C24.5903 11.4571 24.6522 11.3078 24.6522 11.1522C25.0308 11.1522 25.3152 11.0202 25.5395 10.8553C25.6446 11.3366 25.7187 11.8292 25.7665 12.3295C25.6219 12.3443 25.488 12.4121 25.3906 12.5199C25.2932 12.6277 25.2392 12.7678 25.2391 12.913C25.2391 13.0687 25.301 13.218 25.411 13.3281C25.5211 13.4382 25.6704 13.5 25.8261 13.5C25.8261 13.8299 25.809 14.1557 25.7837 14.479C24.9866 14.3207 23.9395 13.8303 22.8443 13.1412C22.8751 13.069 22.891 12.9915 22.8913 12.913C22.8913 12.7574 22.8295 12.6081 22.7194 12.498C22.6093 12.3879 22.46 12.3261 22.3043 12.3261C22.2272 12.3262 22.1508 12.3416 22.0796 12.3713C22.0084 12.401 21.9438 12.4445 21.8894 12.4992C21.5218 12.2393 21.1564 11.9684 20.79 11.6841C20.8915 11.6371 20.9775 11.5621 21.0378 11.4678C21.0982 11.3736 21.1303 11.2641 21.1304 11.1522C21.1304 10.9965 21.0686 10.8472 20.9585 10.7371C20.8484 10.6271 20.6991 10.5652 20.5435 10.5652C20.4087 10.5652 20.2781 10.6116 20.1735 10.6966C20.0689 10.7816 19.9968 10.8999 19.9691 11.0318C19.5402 10.6807 19.1239 10.3277 18.7207 9.97482C18.7413 9.97706 18.7619 9.97821 18.7826 9.97826C18.9383 9.97826 19.0876 9.91642 19.1977 9.80635C19.3077 9.69627 19.3696 9.54698 19.3696 9.3913C19.3696 9.23563 19.3077 9.08634 19.1977 8.97626C19.0876 8.86619 18.9383 8.80435 18.7826 8.80435C18.6269 8.80435 18.4776 8.86619 18.3676 8.97626C18.2575 9.08634 18.1957 9.23563 18.1957 9.3913C18.1956 9.43725 18.201 9.48304 18.2117 9.52773C17.7547 9.12571 17.2655 8.65233 16.7592 8.15549C16.8407 8.19622 16.9306 8.21742 17.0217 8.21739C17.1774 8.21739 17.3267 8.15555 17.4368 8.04548C17.5469 7.9354 17.6087 7.78611 17.6087 7.63044C17.6087 7.47476 17.5469 7.32547 17.4368 7.21539C17.3267 7.10532 17.1774 7.04348 17.0217 7.04348C16.8661 7.04348 16.7168 7.10532 16.6067 7.21539C16.4966 7.32547 16.4348 7.47476 16.4348 7.63044C16.4353 7.72561 16.4589 7.81925 16.5036 7.90328C15.6829 7.0965 14.8073 6.23819 13.8657 5.45572C12.2119 4.08134 10.3412 2.93478 8.21739 2.93478C7.8775 2.93478 7.5629 2.95357 7.26244 2.98179C7.44558 2.9133 7.64069 2.85256 7.84023 2.79607C7.94571 2.88525 8.07926 2.93436 8.21739 2.93478C8.33088 2.9345 8.44185 2.90132 8.53687 2.83926C8.63189 2.7772 8.70688 2.68893 8.75276 2.58513C9.16957 2.5069 9.59104 2.44737 9.99087 2.41088C10.4242 2.37132 10.8064 2.35479 11.1522 2.34553ZM13.5 3.52174C13.3443 3.52174 13.195 3.58358 13.085 3.69365C12.9749 3.80373 12.913 3.95303 12.913 4.1087C12.913 4.26437 12.9749 4.41366 13.085 4.52374C13.195 4.63381 13.3443 4.69565 13.5 4.69565C13.6557 4.69565 13.805 4.63381 13.915 4.52374C14.0251 4.41366 14.087 4.26437 14.087 4.1087C14.087 3.95303 14.0251 3.80373 13.915 3.69365C13.805 3.58358 13.6557 3.52174 13.5 3.52174ZM8.21739 4.1087C9.91115 4.1087 11.5518 5.06016 13.1148 6.35908C14.6778 7.658 16.129 9.27229 17.4929 10.462C18.824 11.6511 20.3826 12.9406 21.9157 13.9482C23.205 14.7956 24.4594 15.4601 25.6358 15.6529C25.5654 16.0529 25.4754 16.4458 25.3675 16.8314C21.0734 16.7057 17.8632 14.4391 14.9307 12.0739C11.9135 9.64029 9.21742 7.04348 5.86957 7.04348C4.42512 7.04348 3.26639 7.56145 2.39941 8.1658C2.87318 7.18084 3.46852 6.26799 4.17519 5.44998C4.22168 5.41828 4.26338 5.38006 4.299 5.33649C4.299 5.33649 4.49 5.08286 5.10148 4.76444C5.71296 4.44602 6.70566 4.1087 8.21739 4.1087ZM15.2609 5.28261C15.1052 5.28261 14.9559 5.34445 14.8458 5.45452C14.7358 5.5646 14.6739 5.71389 14.6739 5.86957C14.6739 6.02524 14.7358 6.17453 14.8458 6.28461C14.9559 6.39468 15.1052 6.45652 15.2609 6.45652C15.4165 6.45652 15.5658 6.39468 15.6759 6.28461C15.786 6.17453 15.8478 6.02524 15.8478 5.86957C15.8478 5.71389 15.786 5.5646 15.6759 5.45452C15.5658 5.34445 15.4165 5.28261 15.2609 5.28261ZM5.86957 8.21739C6.72402 8.21739 7.56147 8.44693 8.40425 8.83645C8.34412 8.81569 8.28101 8.80485 8.21739 8.80435C8.06172 8.80435 7.91243 8.86619 7.80235 8.97626C7.69227 9.08634 7.63044 9.23563 7.63044 9.3913C7.63044 9.54698 7.69227 9.69627 7.80235 9.80635C7.91243 9.91642 8.06172 9.97826 8.21739 9.97826C8.37306 9.97826 8.52236 9.91642 8.63243 9.80635C8.74251 9.69627 8.80435 9.54698 8.80435 9.3913C8.80423 9.29597 8.78089 9.20209 8.73635 9.1178C8.6918 9.03351 8.6274 8.96134 8.5487 8.90752C10.3375 9.77222 12.1528 11.3415 14.1936 12.9876C14.9082 13.5639 15.6528 14.1443 16.4359 14.6968C16.4419 14.8483 16.5061 14.9916 16.6153 15.0967C16.7245 15.2019 16.8702 15.2607 17.0217 15.2609C17.0915 15.2605 17.1606 15.2477 17.2258 15.223C17.6189 15.4804 18.0234 15.7255 18.4375 15.9602C18.3627 16.0146 18.3017 16.086 18.2597 16.1685C18.2176 16.2509 18.1957 16.3422 18.1957 16.4348C18.1957 16.5905 18.2575 16.7397 18.3676 16.8498C18.4776 16.9599 18.6269 17.0217 18.7826 17.0217C18.9331 17.0216 19.0777 16.9638 19.1867 16.8601C19.2957 16.7564 19.3608 16.6148 19.3684 16.4646C20.662 17.1035 22.0625 17.5951 23.5998 17.8391C23.5212 17.9414 23.4785 18.0667 23.4783 18.1957C23.4783 18.3513 23.5401 18.5006 23.6502 18.6107C23.7603 18.7208 23.9095 18.7826 24.0652 18.7826C24.2209 18.7826 24.3702 18.7208 24.4803 18.6107C24.5903 18.5006 24.6522 18.3513 24.6522 18.1957C24.6519 18.1143 24.6347 18.0339 24.6017 17.9595C24.728 17.97 24.852 17.9845 24.98 17.9916C24.7 18.7077 24.3465 19.3853 23.9437 20.0287C23.7921 20.1079 21.7946 21.1304 19.3696 21.1304C16.391 21.1304 14.1216 20.7165 12.2905 20.1549C12.3137 20.0913 12.3258 20.0242 12.3261 19.9565C12.3261 19.8009 12.2642 19.6516 12.1542 19.5415C12.0441 19.4314 11.8948 19.3696 11.7391 19.3696C11.6147 19.3698 11.4936 19.4096 11.3932 19.4831C11.2929 19.5567 11.2185 19.6602 11.1808 19.7788C10.6156 19.5691 10.0878 19.3499 9.60339 19.1288C8.56822 18.6563 7.69675 18.1702 6.87037 17.7795C6.77086 17.6803 6.63907 17.6201 6.49894 17.6098H6.49779C5.70197 17.2606 4.93814 17.0217 4.1087 17.0217C3.11087 17.0217 2.40225 17.4757 1.99588 17.9285C1.85523 17.5629 1.73412 17.1876 1.62789 16.8062C1.71374 16.7015 1.76073 16.5702 1.76087 16.4348C1.76066 16.3219 1.72789 16.2114 1.66648 16.1167C1.60507 16.0219 1.51764 15.9469 1.41466 15.9006C1.2605 15.1238 1.17391 14.3224 1.17391 13.5C1.32958 13.5 1.47888 13.4382 1.58895 13.3281C1.69903 13.218 1.76087 13.0687 1.76087 12.913C1.7608 12.7679 1.70698 12.628 1.60981 12.5203C1.51264 12.4125 1.37899 12.3445 1.23467 12.3295C1.28676 11.7855 1.36958 11.2505 1.48917 10.7292C1.50588 10.7088 1.5212 10.6874 1.53503 10.665C1.53503 10.665 3.06439 8.21739 5.86957 8.21739ZM4.69565 8.80435C4.53998 8.80435 4.39069 8.86619 4.28061 8.97626C4.17054 9.08634 4.1087 9.23563 4.1087 9.3913C4.1087 9.54698 4.17054 9.69627 4.28061 9.80635C4.39069 9.91642 4.53998 9.97826 4.69565 9.97826C4.85132 9.97826 5.00062 9.91642 5.11069 9.80635C5.22077 9.69627 5.28261 9.54698 5.28261 9.3913C5.28261 9.23563 5.22077 9.08634 5.11069 8.97626C5.00062 8.86619 4.85132 8.80435 4.69565 8.80435ZM2.93478 10.5652C2.77911 10.5652 2.62982 10.6271 2.51974 10.7371C2.40967 10.8472 2.34783 10.9965 2.34783 11.1522C2.34783 11.3078 2.40967 11.4571 2.51974 11.5672C2.62982 11.6773 2.77911 11.7391 2.93478 11.7391C3.09045 11.7391 3.23975 11.6773 3.34982 11.5672C3.4599 11.4571 3.52174 11.3078 3.52174 11.1522C3.52174 10.9965 3.4599 10.8472 3.34982 10.7371C3.23975 10.6271 3.09045 10.5652 2.93478 10.5652ZM6.45652 10.5652C6.30085 10.5652 6.15156 10.6271 6.04148 10.7371C5.93141 10.8472 5.86957 10.9965 5.86957 11.1522C5.86957 11.3078 5.93141 11.4571 6.04148 11.5672C6.15156 11.6773 6.30085 11.7391 6.45652 11.7391C6.61219 11.7391 6.76149 11.6773 6.87156 11.5672C6.98164 11.4571 7.04348 11.3078 7.04348 11.1522C7.04348 10.9965 6.98164 10.8472 6.87156 10.7371C6.76149 10.6271 6.61219 10.5652 6.45652 10.5652ZM9.97826 10.5652C9.82259 10.5652 9.6733 10.6271 9.56322 10.7371C9.45314 10.8472 9.3913 10.9965 9.3913 11.1522C9.3913 11.3078 9.45314 11.4571 9.56322 11.5672C9.6733 11.6773 9.82259 11.7391 9.97826 11.7391C10.1339 11.7391 10.2832 11.6773 10.3933 11.5672C10.5034 11.4571 10.5652 11.3078 10.5652 11.1522C10.5652 10.9965 10.5034 10.8472 10.3933 10.7371C10.2832 10.6271 10.1339 10.5652 9.97826 10.5652ZM4.69565 12.3261C4.53998 12.3261 4.39069 12.3879 4.28061 12.498C4.17054 12.6081 4.1087 12.7574 4.1087 12.913C4.1087 13.0687 4.17054 13.218 4.28061 13.3281C4.39069 13.4382 4.53998 13.5 4.69565 13.5C4.85132 13.5 5.00062 13.4382 5.11069 13.3281C5.22077 13.218 5.28261 13.0687 5.28261 12.913C5.28261 12.7574 5.22077 12.6081 5.11069 12.498C5.00062 12.3879 4.85132 12.3261 4.69565 12.3261ZM8.21739 12.3261C8.06172 12.3261 7.91243 12.3879 7.80235 12.498C7.69227 12.6081 7.63044 12.7574 7.63044 12.913C7.63044 13.0687 7.69227 13.218 7.80235 13.3281C7.91243 13.4382 8.06172 13.5 8.21739 13.5C8.37306 13.5 8.52236 13.4382 8.63243 13.3281C8.74251 13.218 8.80435 13.0687 8.80435 12.913C8.80435 12.7574 8.74251 12.6081 8.63243 12.498C8.52236 12.3879 8.37306 12.3261 8.21739 12.3261ZM11.7391 12.3261C11.5835 12.3261 11.4342 12.3879 11.3241 12.498C11.214 12.6081 11.1522 12.7574 11.1522 12.913C11.1522 13.0687 11.214 13.218 11.3241 13.3281C11.4342 13.4382 11.5835 13.5 11.7391 13.5C11.8948 13.5 12.0441 13.4382 12.1542 13.3281C12.2642 13.218 12.3261 13.0687 12.3261 12.913C12.3261 12.7574 12.2642 12.6081 12.1542 12.498C12.0441 12.3879 11.8948 12.3261 11.7391 12.3261ZM2.93478 14.087C2.77911 14.087 2.62982 14.1488 2.51974 14.2589C2.40967 14.3689 2.34783 14.5182 2.34783 14.6739C2.34783 14.8296 2.40967 14.9789 2.51974 15.089C2.62982 15.199 2.77911 15.2609 2.93478 15.2609C3.09045 15.2609 3.23975 15.199 3.34982 15.089C3.4599 14.9789 3.52174 14.8296 3.52174 14.6739C3.52174 14.5182 3.4599 14.3689 3.34982 14.2589C3.23975 14.1488 3.09045 14.087 2.93478 14.087ZM6.45652 14.087C6.30085 14.087 6.15156 14.1488 6.04148 14.2589C5.93141 14.3689 5.86957 14.5182 5.86957 14.6739C5.86957 14.8296 5.93141 14.9789 6.04148 15.089C6.15156 15.199 6.30085 15.2609 6.45652 15.2609C6.61219 15.2609 6.76149 15.199 6.87156 15.089C6.98164 14.9789 7.04348 14.8296 7.04348 14.6739C7.04348 14.5182 6.98164 14.3689 6.87156 14.2589C6.76149 14.1488 6.61219 14.087 6.45652 14.087ZM9.97826 14.087C9.82259 14.087 9.6733 14.1488 9.56322 14.2589C9.45314 14.3689 9.3913 14.5182 9.3913 14.6739C9.3913 14.8296 9.45314 14.9789 9.56322 15.089C9.6733 15.199 9.82259 15.2609 9.97826 15.2609C10.1339 15.2609 10.2832 15.199 10.3933 15.089C10.5034 14.9789 10.5652 14.8296 10.5652 14.6739C10.5652 14.5182 10.5034 14.3689 10.3933 14.2589C10.2832 14.1488 10.1339 14.087 9.97826 14.087ZM13.5 14.087C13.3443 14.087 13.195 14.1488 13.085 14.2589C12.9749 14.3689 12.913 14.5182 12.913 14.6739C12.913 14.8296 12.9749 14.9789 13.085 15.089C13.195 15.199 13.3443 15.2609 13.5 15.2609C13.6557 15.2609 13.805 15.199 13.915 15.089C14.0251 14.9789 14.087 14.8296 14.087 14.6739C14.087 14.5182 14.0251 14.3689 13.915 14.2589C13.805 14.1488 13.6557 14.087 13.5 14.087ZM4.69565 15.8478C4.53998 15.8478 4.39069 15.9097 4.28061 16.0197C4.17054 16.1298 4.1087 16.2791 4.1087 16.4348C4.1087 16.5905 4.17054 16.7397 4.28061 16.8498C4.39069 16.9599 4.53998 17.0217 4.69565 17.0217C4.85132 17.0217 5.00062 16.9599 5.11069 16.8498C5.22077 16.7397 5.28261 16.5905 5.28261 16.4348C5.28261 16.2791 5.22077 16.1298 5.11069 16.0197C5.00062 15.9097 4.85132 15.8478 4.69565 15.8478ZM8.21739 15.8478C8.06172 15.8478 7.91243 15.9097 7.80235 16.0197C7.69227 16.1298 7.63044 16.2791 7.63044 16.4348C7.63044 16.5905 7.69227 16.7397 7.80235 16.8498C7.91243 16.9599 8.06172 17.0217 8.21739 17.0217C8.37306 17.0217 8.52236 16.9599 8.63243 16.8498C8.74251 16.7397 8.80435 16.5905 8.80435 16.4348C8.80435 16.2791 8.74251 16.1298 8.63243 16.0197C8.52236 15.9097 8.37306 15.8478 8.21739 15.8478ZM11.7391 15.8478C11.5835 15.8478 11.4342 15.9097 11.3241 16.0197C11.214 16.1298 11.1522 16.2791 11.1522 16.4348C11.1522 16.5905 11.214 16.7397 11.3241 16.8498C11.4342 16.9599 11.5835 17.0217 11.7391 17.0217C11.8948 17.0217 12.0441 16.9599 12.1542 16.8498C12.2642 16.7397 12.3261 16.5905 12.3261 16.4348C12.3261 16.2791 12.2642 16.1298 12.1542 16.0197C12.0441 15.9097 11.8948 15.8478 11.7391 15.8478ZM15.2609 15.8478C15.1052 15.8478 14.9559 15.9097 14.8458 16.0197C14.7358 16.1298 14.6739 16.2791 14.6739 16.4348C14.6739 16.5905 14.7358 16.7397 14.8458 16.8498C14.9559 16.9599 15.1052 17.0217 15.2609 17.0217C15.4165 17.0217 15.5658 16.9599 15.6759 16.8498C15.786 16.7397 15.8478 16.5905 15.8478 16.4348C15.8478 16.2791 15.786 16.1298 15.6759 16.0197C15.5658 15.9097 15.4165 15.8478 15.2609 15.8478ZM9.97826 17.6087C9.82259 17.6087 9.6733 17.6705 9.56322 17.7806C9.45314 17.8907 9.3913 18.04 9.3913 18.1957C9.3913 18.3513 9.45314 18.5006 9.56322 18.6107C9.6733 18.7208 9.82259 18.7826 9.97826 18.7826C10.1339 18.7826 10.2832 18.7208 10.3933 18.6107C10.5034 18.5006 10.5652 18.3513 10.5652 18.1957C10.5652 18.04 10.5034 17.8907 10.3933 17.7806C10.2832 17.6705 10.1339 17.6087 9.97826 17.6087ZM13.5 17.6087C13.3443 17.6087 13.195 17.6705 13.085 17.7806C12.9749 17.8907 12.913 18.04 12.913 18.1957C12.913 18.3513 12.9749 18.5006 13.085 18.6107C13.195 18.7208 13.3443 18.7826 13.5 18.7826C13.6557 18.7826 13.805 18.7208 13.915 18.6107C14.0251 18.5006 14.087 18.3513 14.087 18.1957C14.087 18.04 14.0251 17.8907 13.915 17.7806C13.805 17.6705 13.6557 17.6087 13.5 17.6087ZM17.0217 17.6087C16.8661 17.6087 16.7168 17.6705 16.6067 17.7806C16.4966 17.8907 16.4348 18.04 16.4348 18.1957C16.4348 18.3513 16.4966 18.5006 16.6067 18.6107C16.7168 18.7208 16.8661 18.7826 17.0217 18.7826C17.1774 18.7826 17.3267 18.7208 17.4368 18.6107C17.5469 18.5006 17.6087 18.3513 17.6087 18.1957C17.6087 18.04 17.5469 17.8907 17.4368 17.7806C17.3267 17.6705 17.1774 17.6087 17.0217 17.6087ZM20.5435 17.6087C20.3878 17.6087 20.2385 17.6705 20.1284 17.7806C20.0184 17.8907 19.9565 18.04 19.9565 18.1957C19.9565 18.3513 20.0184 18.5006 20.1284 18.6107C20.2385 18.7208 20.3878 18.7826 20.5435 18.7826C20.6991 18.7826 20.8484 18.7208 20.9585 18.6107C21.0686 18.5006 21.1304 18.3513 21.1304 18.1957C21.1304 18.04 21.0686 17.8907 20.9585 17.7806C20.8484 17.6705 20.6991 17.6087 20.5435 17.6087ZM4.1087 18.1957C5.39236 18.1957 6.8186 19.1485 9.11617 20.1973C11.4137 21.2461 14.5681 22.3043 19.3696 22.3043C20.5953 22.3043 21.7059 22.0701 22.5932 21.8045C22.444 21.9678 22.29 22.1263 22.1324 22.2814C21.9617 22.3737 19.8571 23.4783 16.4348 23.4783C14.675 23.4783 13.2994 23.0641 12.1025 22.6322C10.9057 22.2003 9.89444 21.7174 8.80435 21.7174C8.12097 21.7174 7.52954 22.0345 7.29454 22.5267C7.05954 23.019 7.12592 23.5183 7.23378 23.9632C7.24879 24.0251 7.2725 24.0801 7.28995 24.1409C5.2884 22.9683 3.6443 21.2515 2.56908 19.1873C2.58609 19.1373 2.65346 18.9542 2.85797 18.7219C3.09235 18.4556 3.4348 18.1957 4.1087 18.1957ZM15.2609 19.3696C15.1052 19.3696 14.9559 19.4314 14.8458 19.5415C14.7358 19.6516 14.6739 19.8009 14.6739 19.9565C14.6739 20.1122 14.7358 20.2615 14.8458 20.3716C14.9559 20.4816 15.1052 20.5435 15.2609 20.5435C15.4165 20.5435 15.5658 20.4816 15.6759 20.3716C15.786 20.2615 15.8478 20.1122 15.8478 19.9565C15.8478 19.8009 15.786 19.6516 15.6759 19.5415C15.5658 19.4314 15.4165 19.3696 15.2609 19.3696ZM18.7826 19.3696C18.6269 19.3696 18.4776 19.4314 18.3676 19.5415C18.2575 19.6516 18.1957 19.8009 18.1957 19.9565C18.1957 20.1122 18.2575 20.2615 18.3676 20.3716C18.4776 20.4816 18.6269 20.5435 18.7826 20.5435C18.9383 20.5435 19.0876 20.4816 19.1977 20.3716C19.3077 20.2615 19.3696 20.1122 19.3696 19.9565C19.3696 19.8009 19.3077 19.6516 19.1977 19.5415C19.0876 19.4314 18.9383 19.3696 18.7826 19.3696ZM22.3043 19.3696C22.1487 19.3696 21.9994 19.4314 21.8893 19.5415C21.7792 19.6516 21.7174 19.8009 21.7174 19.9565C21.7174 20.1122 21.7792 20.2615 21.8893 20.3716C21.9994 20.4816 22.1487 20.5435 22.3043 20.5435C22.46 20.5435 22.6093 20.4816 22.7194 20.3716C22.8295 20.2615 22.8913 20.1122 22.8913 19.9565C22.8913 19.8009 22.8295 19.6516 22.7194 19.5415C22.6093 19.4314 22.46 19.3696 22.3043 19.3696ZM8.80435 22.8913C9.51093 22.8913 10.4619 23.2888 11.7047 23.7373C12.9476 24.1859 14.4891 24.6522 16.4348 24.6522C17.4865 24.6522 18.4246 24.5451 19.2503 24.3954C18.7213 24.6764 18.1687 24.9186 17.5972 25.1211C17.57 24.9886 17.4979 24.8695 17.393 24.7841C17.2882 24.6986 17.157 24.6521 17.0217 24.6522C16.8661 24.6522 16.7168 24.714 16.6067 24.8241C16.4966 24.9342 16.4348 25.0835 16.4348 25.2391C16.4348 25.3142 16.4492 25.3885 16.4772 25.4581C15.5241 25.6958 14.528 25.8261 13.5 25.8261C13.6557 25.8261 13.805 25.7642 13.915 25.6542C14.0251 25.5441 14.087 25.3948 14.087 25.2391C14.087 25.0835 14.0251 24.9342 13.915 24.8241C13.805 24.714 13.6557 24.6522 13.5 24.6522C13.3443 24.6522 13.195 24.714 13.085 24.8241C12.9749 24.9342 12.913 25.0835 12.913 25.2391C12.9129 25.3872 12.9687 25.5298 13.0693 25.6384C13.1698 25.747 13.3077 25.8137 13.4553 25.8249C12.4432 25.8213 11.4627 25.6904 10.5228 25.4569C10.5507 25.3877 10.5651 25.3138 10.5652 25.2391C10.5652 25.0835 10.5034 24.9342 10.3933 24.8241C10.2832 24.714 10.1339 24.6522 9.97826 24.6522C9.84252 24.6522 9.71098 24.6993 9.60605 24.7854C9.50112 24.8715 9.42928 24.9914 9.40277 25.1245C9.2292 25.0633 9.05907 24.9949 8.88918 24.9262C8.8189 24.8008 8.63308 24.4524 8.47648 24.0033C8.57462 23.955 8.65732 23.8803 8.71525 23.7875C8.77319 23.6947 8.80404 23.5876 8.80435 23.4783C8.80434 23.3611 8.76929 23.2467 8.70371 23.1497C8.63813 23.0526 8.54502 22.9774 8.43635 22.9337C8.49222 22.9075 8.59496 22.8913 8.80435 22.8913Z" fill="black"/>
</svg>
