<svg width="50" height="50" viewBox="0 0 50 50" fill="none" xmlns="http://www.w3.org/2000/svg">
<path d="M23 9C20.556 9 18.2822 9.73501 16.3845 10.9932C16.2754 11.0552 16.1666 11.118 16.0645 11.1889C16.0192 11.2194 15.979 11.2569 15.9453 11.2999C12.9503 13.4833 11 17.0156 11 21C11 27.6202 16.3798 33 23 33C26.2095 33 29.1186 31.7273 31.2724 29.6698C31.3363 29.6303 31.3908 29.5775 31.4324 29.5149C33.2799 27.684 34.544 25.265 34.8961 22.5571C34.9011 22.5308 34.9042 22.5043 34.9052 22.4776C34.965 21.993 35 21.5005 35 21C35 19.8726 34.8412 18.7823 34.5496 17.7473C34.5429 17.6944 34.5281 17.6428 34.5058 17.5944L34.5037 17.5904C33.0317 12.6281 28.4356 9 23 9ZM23 10.0435C27.8266 10.0435 31.916 13.1577 33.3787 17.4874C33.3768 17.4908 33.3736 17.4954 33.3716 17.4986C33.3381 17.5532 33.3137 17.5975 33.2891 17.6372C33.1906 17.7961 33.1881 17.8696 32.913 17.8696C32.58 17.8696 32.1116 17.5347 31.5323 16.8353C30.9529 16.1358 30.2961 15.1514 29.4881 14.1501C27.9397 12.2314 25.7604 10.2256 22.3988 10.0608C22.5978 10.0501 22.7983 10.0435 23 10.0435ZM20.913 11.0849V11.087C20.913 11.2253 20.968 11.358 21.0659 11.4559C21.1637 11.5537 21.2964 11.6087 21.4348 11.6087C21.5732 11.6087 21.7059 11.5537 21.8037 11.4559C21.9016 11.358 21.9565 11.2253 21.9565 11.087C22.7614 11.087 23.487 11.2004 24.1474 11.3998H24.1484C24.197 11.4645 24.2599 11.5171 24.3322 11.5534C24.4045 11.5896 24.4843 11.6086 24.5652 11.6087C24.6089 11.6084 24.6524 11.6025 24.6946 11.5914C25.1181 11.7585 25.5122 11.9622 25.8828 12.1936C25.8 12.2382 25.7309 12.3044 25.6826 12.3851C25.6344 12.4659 25.6088 12.5581 25.6087 12.6522C25.6087 12.7905 25.6637 12.9233 25.7615 13.0211C25.8594 13.1189 25.9921 13.1739 26.1304 13.1739C26.2549 13.1739 26.3752 13.1295 26.4698 13.0486C26.5643 12.9677 26.6269 12.8556 26.6461 12.7327C27.021 13.0293 27.3648 13.3563 27.6926 13.6957C27.5548 13.6965 27.4228 13.7518 27.3256 13.8495C27.2285 13.9473 27.1739 14.0795 27.1739 14.2174C27.1739 14.3558 27.2289 14.4885 27.3267 14.5863C27.4246 14.6842 27.5573 14.7391 27.6957 14.7391C27.8262 14.7391 27.9521 14.6901 28.0483 14.6018C28.1445 14.5135 28.2041 14.3923 28.2154 14.2622C28.3719 14.4424 28.5278 14.6229 28.676 14.8064C28.8089 14.9712 28.9339 15.1359 29.0601 15.3006C28.965 15.3403 28.8837 15.4072 28.8266 15.493C28.7695 15.5788 28.739 15.6795 28.7391 15.7826C28.7391 15.921 28.7941 16.0537 28.8919 16.1515C28.9898 16.2494 29.1225 16.3043 29.2609 16.3043C29.339 16.3042 29.416 16.2866 29.4864 16.2527C29.5568 16.2189 29.6187 16.1697 29.6675 16.1087C29.9144 16.4439 30.1525 16.7641 30.3859 17.0666C30.3324 17.1506 30.3041 17.2482 30.3043 17.3478C30.3043 17.4862 30.3593 17.6189 30.4572 17.7168C30.555 17.8146 30.6877 17.8696 30.8261 17.8696C30.8935 17.8695 30.9603 17.8563 31.0228 17.8308C31.3146 18.1547 31.6161 18.4431 31.949 18.6369C31.8972 18.7197 31.8697 18.8154 31.8696 18.913C31.8696 19.0514 31.9245 19.1841 32.0224 19.282C32.1202 19.3798 32.2529 19.4348 32.3913 19.4348C32.5297 19.4348 32.6624 19.3798 32.7602 19.282C32.8581 19.1841 32.913 19.0514 32.913 18.913C33.2496 18.913 33.5024 18.7957 33.7018 18.6491C33.7952 19.077 33.861 19.5148 33.9035 19.9596C33.7751 19.9727 33.656 20.033 33.5694 20.1288C33.4828 20.2246 33.4349 20.3491 33.4348 20.4783C33.4348 20.6166 33.4898 20.7493 33.5876 20.8472C33.6854 20.945 33.8181 21 33.9565 21C33.9565 21.2932 33.9414 21.5828 33.9188 21.8702C33.2103 21.7295 32.2796 21.2936 31.306 20.681C31.3334 20.6169 31.3476 20.548 31.3478 20.4783C31.3478 20.3399 31.2929 20.2072 31.195 20.1093C31.0972 20.0115 30.9645 19.9565 30.8261 19.9565C30.7575 19.9567 30.6896 19.9703 30.6263 19.9967C30.563 20.0231 30.5056 20.0618 30.4572 20.1104C30.1305 19.8793 29.8057 19.6385 29.48 19.3859C29.5702 19.3441 29.6467 19.2774 29.7003 19.1936C29.7539 19.1099 29.7825 19.0125 29.7826 18.913C29.7826 18.7747 29.7276 18.642 29.6298 18.5441C29.5319 18.4463 29.3992 18.3913 29.2609 18.3913C29.1411 18.3913 29.025 18.4326 28.932 18.5081C28.8391 18.5836 28.7749 18.6888 28.7503 18.806C28.369 18.4939 27.9991 18.1802 27.6406 17.8665C27.6589 17.8685 27.6773 17.8695 27.6957 17.8696C27.834 17.8696 27.9667 17.8146 28.0646 17.7168C28.1624 17.6189 28.2174 17.4862 28.2174 17.3478C28.2174 17.2095 28.1624 17.0767 28.0646 16.9789C27.9667 16.8811 27.834 16.8261 27.6957 16.8261C27.5573 16.8261 27.4246 16.8811 27.3267 16.9789C27.2289 17.0767 27.1739 17.2095 27.1739 17.3478C27.1739 17.3887 27.1787 17.4294 27.1882 17.4691C26.7819 17.1117 26.3471 16.691 25.8971 16.2493C25.9695 16.2855 26.0494 16.3044 26.1304 16.3043C26.2688 16.3043 26.4015 16.2494 26.4994 16.1515C26.5972 16.0537 26.6522 15.921 26.6522 15.7826C26.6522 15.6442 26.5972 15.5115 26.4994 15.4137C26.4015 15.3158 26.2688 15.2609 26.1304 15.2609C25.9921 15.2609 25.8594 15.3158 25.7615 15.4137C25.6637 15.5115 25.6087 15.6442 25.6087 15.7826C25.6091 15.8672 25.6301 15.9504 25.6698 16.0251C24.9404 15.308 24.162 14.5451 23.3251 13.8495C21.855 12.6279 20.1922 11.6087 18.3043 11.6087C18.0022 11.6087 17.7226 11.6254 17.4555 11.6505C17.6183 11.5896 17.7917 11.5356 17.9691 11.4854C18.0629 11.5647 18.1816 11.6083 18.3043 11.6087C18.4052 11.6084 18.5039 11.5789 18.5883 11.5238C18.6728 11.4686 18.7394 11.3902 18.7802 11.2979C19.1507 11.2284 19.5254 11.1754 19.8808 11.143C20.266 11.1078 20.6057 11.0931 20.913 11.0849ZM23 12.1304C22.8616 12.1304 22.7289 12.1854 22.6311 12.2832C22.5332 12.3811 22.4783 12.5138 22.4783 12.6522C22.4783 12.7905 22.5332 12.9233 22.6311 13.0211C22.7289 13.1189 22.8616 13.1739 23 13.1739C23.1384 13.1739 23.2711 13.1189 23.3689 13.0211C23.4668 12.9233 23.5217 12.7905 23.5217 12.6522C23.5217 12.5138 23.4668 12.3811 23.3689 12.2832C23.2711 12.1854 23.1384 12.1304 23 12.1304ZM18.3043 12.6522C19.8099 12.6522 21.2683 13.4979 22.6576 14.6525C24.047 15.8071 25.3369 17.242 26.5493 18.2996C27.7324 19.3565 29.1178 20.5027 30.4806 21.3984C31.6267 22.1517 32.7417 22.7423 33.7874 22.9137C33.7248 23.2692 33.6448 23.6185 33.5489 23.9613C29.732 23.8495 26.8784 21.8348 24.2717 19.7323C21.5898 17.5691 19.1933 15.2609 16.2174 15.2609C14.9334 15.2609 13.9035 15.7213 13.1328 16.2585C13.5539 15.383 14.0831 14.5716 14.7113 13.8444C14.7526 13.8162 14.7897 13.7823 14.8213 13.7435C14.8213 13.7435 14.9911 13.5181 15.5346 13.2351C16.0782 12.952 16.9606 12.6522 18.3043 12.6522ZM24.5652 13.6957C24.4268 13.6957 24.2941 13.7506 24.1963 13.8485C24.0984 13.9463 24.0435 14.079 24.0435 14.2174C24.0435 14.3558 24.0984 14.4885 24.1963 14.5863C24.2941 14.6842 24.4268 14.7391 24.5652 14.7391C24.7036 14.7391 24.8363 14.6842 24.9341 14.5863C25.032 14.4885 25.087 14.3558 25.087 14.2174C25.087 14.079 25.032 13.9463 24.9341 13.8485C24.8363 13.7506 24.7036 13.6957 24.5652 13.6957ZM16.2174 16.3043C16.9769 16.3043 17.7213 16.5084 18.4704 16.8546C18.417 16.8362 18.3609 16.8265 18.3043 16.8261C18.166 16.8261 18.0333 16.8811 17.9354 16.9789C17.8376 17.0767 17.7826 17.2095 17.7826 17.3478C17.7826 17.4862 17.8376 17.6189 17.9354 17.7168C18.0333 17.8146 18.166 17.8696 18.3043 17.8696C18.4427 17.8696 18.5754 17.8146 18.6733 17.7168C18.7711 17.6189 18.8261 17.4862 18.8261 17.3478C18.826 17.2631 18.8052 17.1796 18.7656 17.1047C18.726 17.0298 18.6688 16.9656 18.5988 16.9178C20.1889 17.6864 21.8025 19.0813 23.6165 20.5445C24.2517 21.0568 24.9136 21.5727 25.6097 22.0639C25.615 22.1985 25.6721 22.3259 25.7692 22.4193C25.8662 22.5128 25.9957 22.5651 26.1304 22.5652C26.1924 22.5649 26.2538 22.5535 26.3118 22.5316C26.6613 22.7603 27.0208 22.9782 27.3889 23.1868C27.3224 23.2352 27.2682 23.2986 27.2308 23.372C27.1934 23.4453 27.1739 23.5264 27.1739 23.6087C27.1739 23.7471 27.2289 23.8798 27.3267 23.9776C27.4246 24.0755 27.5573 24.1304 27.6957 24.1304C27.8294 24.1303 27.958 24.0789 28.0549 23.9868C28.1518 23.8946 28.2096 23.7687 28.2164 23.6352C29.3662 24.2031 30.6111 24.6401 31.9776 24.857C31.9077 24.9479 31.8698 25.0593 31.8696 25.1739C31.8696 25.3123 31.9245 25.445 32.0224 25.5428C32.1202 25.6407 32.2529 25.6957 32.3913 25.6957C32.5297 25.6957 32.6624 25.6407 32.7602 25.5428C32.8581 25.445 32.913 25.3123 32.913 25.1739C32.9128 25.1016 32.8975 25.0301 32.8682 24.964C32.9804 24.9733 33.0907 24.9863 33.2045 24.9925C32.9556 25.6291 32.6414 26.2313 32.2833 26.8033C32.1486 26.8737 30.373 27.7826 28.2174 27.7826C25.5698 27.7826 23.5525 27.4146 21.9249 26.9154C21.9455 26.8589 21.9562 26.7993 21.9565 26.7391C21.9565 26.6008 21.9016 26.4681 21.8037 26.3702C21.7059 26.2724 21.5732 26.2174 21.4348 26.2174C21.3242 26.2176 21.2165 26.253 21.1273 26.3183C21.0381 26.3837 20.972 26.4758 20.9385 26.5812C20.4361 26.3948 19.9669 26.1999 19.5363 26.0034C18.6162 25.5834 17.8416 25.1513 17.107 24.804C17.0185 24.7158 16.9014 24.6623 16.7768 24.6532H16.7758C16.0684 24.3428 15.3895 24.1304 14.6522 24.1304C13.7652 24.1304 13.1353 24.5339 12.7741 24.9365C12.6491 24.6115 12.5414 24.2778 12.447 23.9389C12.5233 23.8457 12.5651 23.7291 12.5652 23.6087C12.565 23.5083 12.5359 23.4101 12.4813 23.3259C12.4267 23.2417 12.349 23.175 12.2575 23.1338C12.1204 22.4434 12.0435 21.7311 12.0435 21C12.1819 21 12.3146 20.945 12.4124 20.8472C12.5102 20.7493 12.5652 20.6166 12.5652 20.4783C12.5652 20.3493 12.5173 20.2249 12.4309 20.1291C12.3446 20.0333 12.2258 19.9729 12.0975 19.9596C12.1438 19.476 12.2174 19.0005 12.3237 18.537C12.3386 18.5189 12.3522 18.4999 12.3645 18.48C12.3645 18.48 13.7239 16.3043 16.2174 16.3043ZM15.1739 16.8261C15.0355 16.8261 14.9028 16.8811 14.805 16.9789C14.7071 17.0767 14.6522 17.2095 14.6522 17.3478C14.6522 17.4862 14.7071 17.6189 14.805 17.7168C14.9028 17.8146 15.0355 17.8696 15.1739 17.8696C15.3123 17.8696 15.445 17.8146 15.5428 17.7168C15.6407 17.6189 15.6957 17.4862 15.6957 17.3478C15.6957 17.2095 15.6407 17.0767 15.5428 16.9789C15.445 16.8811 15.3123 16.8261 15.1739 16.8261ZM13.6087 18.3913C13.4703 18.3913 13.3376 18.4463 13.2398 18.5441C13.1419 18.642 13.087 18.7747 13.087 18.913C13.087 19.0514 13.1419 19.1841 13.2398 19.282C13.3376 19.3798 13.4703 19.4348 13.6087 19.4348C13.7471 19.4348 13.8798 19.3798 13.9776 19.282C14.0755 19.1841 14.1304 19.0514 14.1304 18.913C14.1304 18.7747 14.0755 18.642 13.9776 18.5441C13.8798 18.4463 13.7471 18.3913 13.6087 18.3913ZM16.7391 18.3913C16.6008 18.3913 16.4681 18.4463 16.3702 18.5441C16.2724 18.642 16.2174 18.7747 16.2174 18.913C16.2174 19.0514 16.2724 19.1841 16.3702 19.282C16.4681 19.3798 16.6008 19.4348 16.7391 19.4348C16.8775 19.4348 17.0102 19.3798 17.1081 19.282C17.2059 19.1841 17.2609 19.0514 17.2609 18.913C17.2609 18.7747 17.2059 18.642 17.1081 18.5441C17.0102 18.4463 16.8775 18.3913 16.7391 18.3913ZM19.8696 18.3913C19.7312 18.3913 19.5985 18.4463 19.5006 18.5441C19.4028 18.642 19.3478 18.7747 19.3478 18.913C19.3478 19.0514 19.4028 19.1841 19.5006 19.282C19.5985 19.3798 19.7312 19.4348 19.8696 19.4348C20.0079 19.4348 20.1406 19.3798 20.2385 19.282C20.3363 19.1841 20.3913 19.0514 20.3913 18.913C20.3913 18.7747 20.3363 18.642 20.2385 18.5441C20.1406 18.4463 20.0079 18.3913 19.8696 18.3913ZM15.1739 19.9565C15.0355 19.9565 14.9028 20.0115 14.805 20.1093C14.7071 20.2072 14.6522 20.3399 14.6522 20.4783C14.6522 20.6166 14.7071 20.7493 14.805 20.8472C14.9028 20.945 15.0355 21 15.1739 21C15.3123 21 15.445 20.945 15.5428 20.8472C15.6407 20.7493 15.6957 20.6166 15.6957 20.4783C15.6957 20.3399 15.6407 20.2072 15.5428 20.1093C15.445 20.0115 15.3123 19.9565 15.1739 19.9565ZM18.3043 19.9565C18.166 19.9565 18.0333 20.0115 17.9354 20.1093C17.8376 20.2072 17.7826 20.3399 17.7826 20.4783C17.7826 20.6166 17.8376 20.7493 17.9354 20.8472C18.0333 20.945 18.166 21 18.3043 21C18.4427 21 18.5754 20.945 18.6733 20.8472C18.7711 20.7493 18.8261 20.6166 18.8261 20.4783C18.8261 20.3399 18.7711 20.2072 18.6733 20.1093C18.5754 20.0115 18.4427 19.9565 18.3043 19.9565ZM21.4348 19.9565C21.2964 19.9565 21.1637 20.0115 21.0659 20.1093C20.968 20.2072 20.913 20.3399 20.913 20.4783C20.913 20.6166 20.968 20.7493 21.0659 20.8472C21.1637 20.945 21.2964 21 21.4348 21C21.5732 21 21.7059 20.945 21.8037 20.8472C21.9016 20.7493 21.9565 20.6166 21.9565 20.4783C21.9565 20.3399 21.9016 20.2072 21.8037 20.1093C21.7059 20.0115 21.5732 19.9565 21.4348 19.9565ZM13.6087 21.5217C13.4703 21.5217 13.3376 21.5767 13.2398 21.6746C13.1419 21.7724 13.087 21.9051 13.087 22.0435C13.087 22.1819 13.1419 22.3146 13.2398 22.4124C13.3376 22.5102 13.4703 22.5652 13.6087 22.5652C13.7471 22.5652 13.8798 22.5102 13.9776 22.4124C14.0755 22.3146 14.1304 22.1819 14.1304 22.0435C14.1304 21.9051 14.0755 21.7724 13.9776 21.6746C13.8798 21.5767 13.7471 21.5217 13.6087 21.5217ZM16.7391 21.5217C16.6008 21.5217 16.4681 21.5767 16.3702 21.6746C16.2724 21.7724 16.2174 21.9051 16.2174 22.0435C16.2174 22.1819 16.2724 22.3146 16.3702 22.4124C16.4681 22.5102 16.6008 22.5652 16.7391 22.5652C16.8775 22.5652 17.0102 22.5102 17.1081 22.4124C17.2059 22.3146 17.2609 22.1819 17.2609 22.0435C17.2609 21.9051 17.2059 21.7724 17.1081 21.6746C17.0102 21.5767 16.8775 21.5217 16.7391 21.5217ZM19.8696 21.5217C19.7312 21.5217 19.5985 21.5767 19.5006 21.6746C19.4028 21.7724 19.3478 21.9051 19.3478 22.0435C19.3478 22.1819 19.4028 22.3146 19.5006 22.4124C19.5985 22.5102 19.7312 22.5652 19.8696 22.5652C20.0079 22.5652 20.1406 22.5102 20.2385 22.4124C20.3363 22.3146 20.3913 22.1819 20.3913 22.0435C20.3913 21.9051 20.3363 21.7724 20.2385 21.6746C20.1406 21.5767 20.0079 21.5217 19.8696 21.5217ZM23 21.5217C22.8616 21.5217 22.7289 21.5767 22.6311 21.6746C22.5332 21.7724 22.4783 21.9051 22.4783 22.0435C22.4783 22.1819 22.5332 22.3146 22.6311 22.4124C22.7289 22.5102 22.8616 22.5652 23 22.5652C23.1384 22.5652 23.2711 22.5102 23.3689 22.4124C23.4668 22.3146 23.5217 22.1819 23.5217 22.0435C23.5217 21.9051 23.4668 21.7724 23.3689 21.6746C23.2711 21.5767 23.1384 21.5217 23 21.5217ZM15.1739 23.087C15.0355 23.087 14.9028 23.1419 14.805 23.2398C14.7071 23.3376 14.6522 23.4703 14.6522 23.6087C14.6522 23.7471 14.7071 23.8798 14.805 23.9776C14.9028 24.0755 15.0355 24.1304 15.1739 24.1304C15.3123 24.1304 15.445 24.0755 15.5428 23.9776C15.6407 23.8798 15.6957 23.7471 15.6957 23.6087C15.6957 23.4703 15.6407 23.3376 15.5428 23.2398C15.445 23.1419 15.3123 23.087 15.1739 23.087ZM18.3043 23.087C18.166 23.087 18.0333 23.1419 17.9354 23.2398C17.8376 23.3376 17.7826 23.4703 17.7826 23.6087C17.7826 23.7471 17.8376 23.8798 17.9354 23.9776C18.0333 24.0755 18.166 24.1304 18.3043 24.1304C18.4427 24.1304 18.5754 24.0755 18.6733 23.9776C18.7711 23.8798 18.8261 23.7471 18.8261 23.6087C18.8261 23.4703 18.7711 23.3376 18.6733 23.2398C18.5754 23.1419 18.4427 23.087 18.3043 23.087ZM21.4348 23.087C21.2964 23.087 21.1637 23.1419 21.0659 23.2398C20.968 23.3376 20.913 23.4703 20.913 23.6087C20.913 23.7471 20.968 23.8798 21.0659 23.9776C21.1637 24.0755 21.2964 24.1304 21.4348 24.1304C21.5732 24.1304 21.7059 24.0755 21.8037 23.9776C21.9016 23.8798 21.9565 23.7471 21.9565 23.6087C21.9565 23.4703 21.9016 23.3376 21.8037 23.2398C21.7059 23.1419 21.5732 23.087 21.4348 23.087ZM24.5652 23.087C24.4268 23.087 24.2941 23.1419 24.1963 23.2398C24.0984 23.3376 24.0435 23.4703 24.0435 23.6087C24.0435 23.7471 24.0984 23.8798 24.1963 23.9776C24.2941 24.0755 24.4268 24.1304 24.5652 24.1304C24.7036 24.1304 24.8363 24.0755 24.9341 23.9776C25.032 23.8798 25.087 23.7471 25.087 23.6087C25.087 23.4703 25.032 23.3376 24.9341 23.2398C24.8363 23.1419 24.7036 23.087 24.5652 23.087ZM19.8696 24.6522C19.7312 24.6522 19.5985 24.7071 19.5006 24.805C19.4028 24.9028 19.3478 25.0355 19.3478 25.1739C19.3478 25.3123 19.4028 25.445 19.5006 25.5428C19.5985 25.6407 19.7312 25.6957 19.8696 25.6957C20.0079 25.6957 20.1406 25.6407 20.2385 25.5428C20.3363 25.445 20.3913 25.3123 20.3913 25.1739C20.3913 25.0355 20.3363 24.9028 20.2385 24.805C20.1406 24.7071 20.0079 24.6522 19.8696 24.6522ZM23 24.6522C22.8616 24.6522 22.7289 24.7071 22.6311 24.805C22.5332 24.9028 22.4783 25.0355 22.4783 25.1739C22.4783 25.3123 22.5332 25.445 22.6311 25.5428C22.7289 25.6407 22.8616 25.6957 23 25.6957C23.1384 25.6957 23.2711 25.6407 23.3689 25.5428C23.4668 25.445 23.5217 25.3123 23.5217 25.1739C23.5217 25.0355 23.4668 24.9028 23.3689 24.805C23.2711 24.7071 23.1384 24.6522 23 24.6522ZM26.1304 24.6522C25.9921 24.6522 25.8594 24.7071 25.7615 24.805C25.6637 24.9028 25.6087 25.0355 25.6087 25.1739C25.6087 25.3123 25.6637 25.445 25.7615 25.5428C25.8594 25.6407 25.9921 25.6957 26.1304 25.6957C26.2688 25.6957 26.4015 25.6407 26.4994 25.5428C26.5972 25.445 26.6522 25.3123 26.6522 25.1739C26.6522 25.0355 26.5972 24.9028 26.4994 24.805C26.4015 24.7071 26.2688 24.6522 26.1304 24.6522ZM29.2609 24.6522C29.1225 24.6522 28.9898 24.7071 28.8919 24.805C28.7941 24.9028 28.7391 25.0355 28.7391 25.1739C28.7391 25.3123 28.7941 25.445 28.8919 25.5428C28.9898 25.6407 29.1225 25.6957 29.2609 25.6957C29.3992 25.6957 29.5319 25.6407 29.6298 25.5428C29.7276 25.445 29.7826 25.3123 29.7826 25.1739C29.7826 25.0355 29.7276 24.9028 29.6298 24.805C29.5319 24.7071 29.3992 24.6522 29.2609 24.6522ZM14.6522 25.1739C15.7932 25.1739 17.061 26.0209 19.1033 26.9531C21.1455 27.8854 23.9495 28.8261 28.2174 28.8261C29.3069 28.8261 30.2941 28.6179 31.0829 28.3818C30.9502 28.527 30.8133 28.6678 30.6732 28.8057C30.5215 28.8877 28.6507 29.8696 25.6087 29.8696C24.0445 29.8696 22.8217 29.5015 21.7578 29.1175C20.6939 28.7336 19.7951 28.3043 18.8261 28.3043C18.2186 28.3043 17.6929 28.5862 17.484 29.0238C17.2751 29.4613 17.3342 29.9051 17.43 30.3006C17.4434 30.3556 17.4644 30.4045 17.48 30.4586C15.7008 29.4163 14.2394 27.8902 13.2836 26.0554C13.2987 26.0109 13.3586 25.8482 13.5404 25.6416C13.7488 25.4049 14.0532 25.1739 14.6522 25.1739ZM24.5652 26.2174C24.4268 26.2174 24.2941 26.2724 24.1963 26.3702C24.0984 26.4681 24.0435 26.6008 24.0435 26.7391C24.0435 26.8775 24.0984 27.0102 24.1963 27.1081C24.2941 27.2059 24.4268 27.2609 24.5652 27.2609C24.7036 27.2609 24.8363 27.2059 24.9341 27.1081C25.032 27.0102 25.087 26.8775 25.087 26.7391C25.087 26.6008 25.032 26.4681 24.9341 26.3702C24.8363 26.2724 24.7036 26.2174 24.5652 26.2174ZM27.6957 26.2174C27.5573 26.2174 27.4246 26.2724 27.3267 26.3702C27.2289 26.4681 27.1739 26.6008 27.1739 26.7391C27.1739 26.8775 27.2289 27.0102 27.3267 27.1081C27.4246 27.2059 27.5573 27.2609 27.6957 27.2609C27.834 27.2609 27.9667 27.2059 28.0646 27.1081C28.1624 27.0102 28.2174 26.8775 28.2174 26.7391C28.2174 26.6008 28.1624 26.4681 28.0646 26.3702C27.9667 26.2724 27.834 26.2174 27.6957 26.2174ZM30.8261 26.2174C30.6877 26.2174 30.555 26.2724 30.4572 26.3702C30.3593 26.4681 30.3043 26.6008 30.3043 26.7391C30.3043 26.8775 30.3593 27.0102 30.4572 27.1081C30.555 27.2059 30.6877 27.2609 30.8261 27.2609C30.9645 27.2609 31.0972 27.2059 31.195 27.1081C31.2929 27.0102 31.3478 26.8775 31.3478 26.7391C31.3478 26.6008 31.2929 26.4681 31.195 26.3702C31.0972 26.2724 30.9645 26.2174 30.8261 26.2174ZM18.8261 29.3478C19.4542 29.3478 20.2995 29.7012 21.4042 30.0999C22.5089 30.4985 23.8792 30.913 25.6087 30.913C26.5436 30.913 27.3774 30.8178 28.1114 30.6848C27.6412 30.9346 27.1499 31.1498 26.642 31.3298C26.6178 31.212 26.5537 31.1062 26.4605 31.0303C26.3672 30.9544 26.2507 30.9129 26.1304 30.913C25.9921 30.913 25.8594 30.968 25.7615 31.0659C25.6637 31.1637 25.6087 31.2964 25.6087 31.4348C25.6087 31.5015 25.6215 31.5675 25.6464 31.6294C24.7992 31.8407 23.9138 31.9565 23 31.9565C23.1384 31.9565 23.2711 31.9016 23.3689 31.8037C23.4668 31.7059 23.5217 31.5732 23.5217 31.4348C23.5217 31.2964 23.4668 31.1637 23.3689 31.0659C23.2711 30.968 23.1384 30.913 23 30.913C22.8616 30.913 22.7289 30.968 22.6311 31.0659C22.5332 31.1637 22.4783 31.2964 22.4783 31.4348C22.4781 31.5664 22.5277 31.6931 22.6171 31.7897C22.7065 31.8863 22.8291 31.9455 22.9603 31.9555C22.0606 31.9523 21.189 31.8359 20.3536 31.6284C20.3784 31.5668 20.3912 31.5011 20.3913 31.4348C20.3913 31.2964 20.3363 31.1637 20.2385 31.0659C20.1406 30.968 20.0079 30.913 19.8696 30.913C19.7489 30.9131 19.632 30.9549 19.5387 31.0315C19.4454 31.108 19.3816 31.2145 19.358 31.3329C19.2037 31.2784 19.0525 31.2177 18.9015 31.1566C18.839 31.0451 18.6738 30.7355 18.5346 30.3363C18.6219 30.2934 18.6954 30.2269 18.7469 30.1445C18.7984 30.062 18.8258 29.9668 18.8261 29.8696C18.8261 29.7655 18.7949 29.6637 18.7366 29.5775C18.6783 29.4912 18.5956 29.4244 18.499 29.3855C18.5486 29.3622 18.64 29.3478 18.8261 29.3478Z" fill="black"/>
</svg>
