<svg width="30" height="30" viewBox="0 0 30 30" fill="none" xmlns="http://www.w3.org/2000/svg">
<path d="M14.9964 0C11.0191 0 7.20472 1.57998 4.39235 4.39235C1.57997 7.20472 0 11.0191 0 14.9964C0 15.4784 0 15.9498 0.074982 16.4211C0.351013 19.3135 1.46136 22.0635 3.27106 24.3367C5.08075 26.6099 7.51185 28.3084 10.2688 29.2258C13.0258 30.1431 15.9899 30.2398 18.8008 29.5041C21.6117 28.7684 24.1483 27.232 26.1023 25.0816C28.0563 22.9312 29.3436 20.2594 29.8076 17.3911C30.2715 14.5228 29.8923 11.5815 28.7159 8.92473C27.5395 6.26795 25.6166 4.01013 23.181 2.42573C20.7454 0.84134 17.902 -0.00138501 14.9964 0ZM14.9964 2.14235C18.3015 2.14522 21.4751 3.42089 23.8612 5.69882C23.9748 5.80728 24.0371 5.95838 24.0371 6.11546C24.0371 6.51996 23.6386 6.80441 23.2509 6.68881C19.6209 5.60631 15.7586 5.58716 12.1222 6.62949C11.4184 6.83123 10.6644 6.60477 9.96279 6.39406L9.95558 6.3919C9.90117 6.37556 9.8461 6.36104 9.79047 6.34841C9.76917 6.34357 9.74737 6.34134 9.72553 6.34134C9.58647 6.34134 9.46405 6.24921 9.42694 6.11519C9.32317 5.74041 9.22807 5.3644 9.14781 4.98095C8.98433 4.19986 9.40134 3.4115 10.1391 3.10718C11.6758 2.47327 13.3256 2.14388 14.9964 2.14235ZM11.8043 8.50511C11.7923 8.46317 11.8155 8.41918 11.857 8.40551C14.3647 7.57766 17.0058 7.31036 19.5979 7.60147C22.0423 7.876 23.4735 10.3903 22.4583 12.6308C22.1152 13.388 21.7199 14.1217 21.2748 14.8265C20.8361 15.521 19.9487 15.7128 19.1319 15.8894C19.0665 15.9035 19.0015 15.9175 18.9373 15.9317C18.8581 15.9492 18.7801 15.9706 18.7036 15.9957C18.0005 16.2261 17.1689 16.4535 16.5818 16.0033C14.6999 14.7477 13.0881 13.1339 11.8364 11.2575C11.4989 10.7516 11.5982 10.0943 11.7542 9.50664C11.841 9.18 11.858 8.83877 11.8043 8.50511ZM7.49823 4.5816C7.49933 4.75105 7.53626 4.92643 7.57252 5.09861C7.5839 5.15264 7.59521 5.20635 7.60533 5.25946L7.60874 5.27609C7.77796 6.09655 7.37705 6.92818 7.00911 7.68078C6.93025 7.84209 6.86982 8.01077 6.82834 8.18365C6.70211 8.70977 6.48492 9.24998 6.04579 9.56607C4.88761 10.3997 3.30137 9.52344 4.04568 8.3059C4.93742 6.84718 6.11119 5.58105 7.49823 4.5816ZM7.50355 21.4127C7.50049 21.4066 7.49337 21.4037 7.48689 21.4059C7.07331 21.5469 6.70371 21.7936 6.41482 22.1216C6.22 22.3429 6.06649 22.5958 5.9603 22.8684C5.86808 23.1051 5.655 23.2873 5.40094 23.2873C5.24336 23.2873 5.09335 23.2179 4.99447 23.0952C3.40869 21.1274 2.44132 18.7336 2.21483 16.2163C2.20109 16.0637 2.23695 15.911 2.31373 15.7784C3.41439 14.0717 4.7926 12.5651 6.38851 11.3195C6.99486 10.8462 7.85288 11.0092 8.59428 11.2141C9.35119 11.4232 10.1789 11.6891 10.6256 12.3349C11.969 14.2768 13.6689 15.9514 15.6391 17.2673C15.9208 17.4528 16.2069 17.6295 16.4945 17.8002C16.7878 17.9742 16.9453 18.3018 16.992 18.6396C17.0461 19.0302 16.9578 19.4532 16.6401 19.6869C15.2808 20.6869 13.7901 21.4915 12.2118 22.0784C11.4031 22.3792 10.5448 22.014 9.72373 21.6646C9.56003 21.5949 9.39782 21.5259 9.23776 21.4629C8.68813 21.2465 8.07989 21.2313 7.5203 21.4196C7.51378 21.4218 7.50663 21.4189 7.50355 21.4127ZM14.9964 27.8398C14.9964 27.8339 14.9916 27.8291 14.9857 27.8291C12.9132 27.8279 10.8737 27.3223 9.04258 26.3578C8.94832 26.3082 8.96867 26.1696 9.07283 26.1473C9.49908 26.0075 9.87999 25.7558 10.1758 25.4185C10.2234 25.3642 10.2711 25.3093 10.319 25.2542C10.8129 24.6856 11.332 24.0879 12.0387 23.8557C13.7242 23.3019 15.3268 22.5236 16.8033 21.5423C17.4414 21.1182 18.2407 21.0149 19.0292 20.913C19.3543 20.8709 19.6775 20.8291 19.9869 20.7652C20.3082 20.6988 20.6332 20.6039 20.9599 20.5085C21.7139 20.2882 22.4769 20.0653 23.2248 20.1844C24.1728 20.3355 25.132 20.4132 26.0938 20.4166C26.3585 20.4166 26.5329 20.6911 26.4108 20.9259C25.3708 22.9263 23.8211 24.6212 21.9142 25.8364C19.8504 27.1516 17.4542 27.8503 15.0071 27.8505C15.0012 27.8505 14.9964 27.8457 14.9964 27.8398ZM21.9722 18.3029C21.9706 18.2981 21.9698 18.2931 21.9697 18.288C21.9693 18.2047 21.9647 18.1216 21.956 18.0392C21.8873 17.3896 21.882 16.6839 22.25 16.1443C23.4285 14.4162 24.3239 12.512 24.9034 10.5037C25.1047 9.80601 25.874 9.4178 26.5067 9.77405C26.7177 9.89283 26.8853 10.0817 26.9732 10.3073C27.6648 12.0832 27.9489 13.9804 27.8185 15.861C27.6958 17.6307 26.1124 18.8874 24.3463 18.7203C23.5593 18.6458 22.7774 18.5168 22.006 18.3338C21.9901 18.3301 21.9773 18.3183 21.9722 18.3029Z" fill="black"/>
<path d="M14.9964 0C11.0191 0 7.20472 1.57998 4.39235 4.39235C1.57997 7.20472 0 11.0191 0 14.9964C0 15.4784 0 15.9498 0.074982 16.4211C0.351013 19.3135 1.46136 22.0635 3.27106 24.3367C5.08075 26.6099 7.51185 28.3084 10.2688 29.2258C13.0258 30.1431 15.9899 30.2398 18.8008 29.5041C21.6117 28.7684 24.1483 27.232 26.1023 25.0816C28.0563 22.9312 29.3436 20.2594 29.8076 17.3911C30.2715 14.5228 29.8923 11.5815 28.7159 8.92473C27.5395 6.26795 25.6166 4.01013 23.181 2.42573C20.7454 0.84134 17.902 -0.00138501 14.9964 0ZM14.9964 2.14235C18.3015 2.14522 21.4751 3.42089 23.8612 5.69882C23.9748 5.80728 24.0371 5.95838 24.0371 6.11546C24.0371 6.51996 23.6386 6.80441 23.2509 6.68881C19.6209 5.60631 15.7586 5.58716 12.1222 6.62949C11.4184 6.83123 10.6644 6.60477 9.96279 6.39406L9.95558 6.3919C9.90117 6.37556 9.8461 6.36104 9.79047 6.34841C9.76917 6.34357 9.74737 6.34134 9.72553 6.34134C9.58647 6.34134 9.46405 6.24921 9.42694 6.11519C9.32317 5.74041 9.22807 5.3644 9.14781 4.98095C8.98433 4.19986 9.40134 3.4115 10.1391 3.10718C11.6758 2.47327 13.3256 2.14388 14.9964 2.14235ZM11.8043 8.50511C11.7923 8.46317 11.8155 8.41918 11.857 8.40551C14.3647 7.57766 17.0058 7.31036 19.5979 7.60147C22.0423 7.876 23.4735 10.3903 22.4583 12.6308C22.1152 13.388 21.7199 14.1217 21.2748 14.8265C20.8361 15.521 19.9487 15.7128 19.1319 15.8894C19.0665 15.9035 19.0015 15.9175 18.9373 15.9317C18.8581 15.9492 18.7801 15.9706 18.7036 15.9957C18.0005 16.2261 17.1689 16.4535 16.5818 16.0033C14.6999 14.7477 13.0881 13.1339 11.8364 11.2575C11.4989 10.7516 11.5982 10.0943 11.7542 9.50664C11.841 9.18 11.858 8.83877 11.8043 8.50511ZM7.49823 4.5816C7.49933 4.75105 7.53626 4.92643 7.57252 5.09861C7.5839 5.15264 7.59521 5.20635 7.60533 5.25946L7.60874 5.27609C7.77796 6.09655 7.37705 6.92818 7.00911 7.68078C6.93025 7.84209 6.86982 8.01077 6.82834 8.18365C6.70211 8.70977 6.48492 9.24998 6.04579 9.56607C4.88761 10.3997 3.30137 9.52344 4.04568 8.3059C4.93742 6.84718 6.11119 5.58105 7.49823 4.5816ZM7.50355 21.4127C7.50049 21.4066 7.49337 21.4037 7.48689 21.4059C7.07331 21.5469 6.70371 21.7936 6.41482 22.1216C6.22 22.3429 6.06649 22.5958 5.9603 22.8684C5.86808 23.1051 5.655 23.2873 5.40094 23.2873C5.24336 23.2873 5.09335 23.2179 4.99447 23.0952C3.40869 21.1274 2.44132 18.7336 2.21483 16.2163C2.20109 16.0637 2.23695 15.911 2.31373 15.7784C3.41439 14.0717 4.7926 12.5651 6.38851 11.3195C6.99486 10.8462 7.85288 11.0092 8.59428 11.2141C9.35119 11.4232 10.1789 11.6891 10.6256 12.3349C11.969 14.2768 13.6689 15.9514 15.6391 17.2673C15.9208 17.4528 16.2069 17.6295 16.4945 17.8002C16.7878 17.9742 16.9453 18.3018 16.992 18.6396C17.0461 19.0302 16.9578 19.4532 16.6401 19.6869C15.2808 20.6869 13.7901 21.4915 12.2118 22.0784C11.4031 22.3792 10.5448 22.014 9.72373 21.6646C9.56003 21.5949 9.39782 21.5259 9.23776 21.4629C8.68813 21.2465 8.07989 21.2313 7.5203 21.4196C7.51378 21.4218 7.50663 21.4189 7.50355 21.4127ZM14.9964 27.8398C14.9964 27.8339 14.9916 27.8291 14.9857 27.8291C12.9132 27.8279 10.8737 27.3223 9.04258 26.3578C8.94832 26.3082 8.96867 26.1696 9.07283 26.1473C9.49908 26.0075 9.87999 25.7558 10.1758 25.4185C10.2234 25.3642 10.2711 25.3093 10.319 25.2542C10.8129 24.6856 11.332 24.0879 12.0387 23.8557C13.7242 23.3019 15.3268 22.5236 16.8033 21.5423C17.4414 21.1182 18.2407 21.0149 19.0292 20.913C19.3543 20.8709 19.6775 20.8291 19.9869 20.7652C20.3082 20.6988 20.6332 20.6039 20.9599 20.5085C21.7139 20.2882 22.4769 20.0653 23.2248 20.1844C24.1728 20.3355 25.132 20.4132 26.0938 20.4166C26.3585 20.4166 26.5329 20.6911 26.4108 20.9259C25.3708 22.9263 23.8211 24.6212 21.9142 25.8364C19.8504 27.1516 17.4542 27.8503 15.0071 27.8505C15.0012 27.8505 14.9964 27.8457 14.9964 27.8398ZM21.9722 18.3029C21.9706 18.2981 21.9698 18.2931 21.9697 18.288C21.9693 18.2047 21.9647 18.1216 21.956 18.0392C21.8873 17.3896 21.882 16.6839 22.25 16.1443C23.4285 14.4162 24.3239 12.512 24.9034 10.5037C25.1047 9.80601 25.874 9.4178 26.5067 9.77405C26.7177 9.89283 26.8853 10.0817 26.9732 10.3073C27.6648 12.0832 27.9489 13.9804 27.8185 15.861C27.6958 17.6307 26.1124 18.8874 24.3463 18.7203C23.5593 18.6458 22.7774 18.5168 22.006 18.3338C21.9901 18.3301 21.9773 18.3183 21.9722 18.3029Z" stroke="black"/>
</svg>
